<?xml version="1.0" standalone="no"?>
<!DOCTYPE svg PUBLIC "-//W3C//DTD SVG 1.1//EN" "http://www.w3.org/Graphics/SVG/1.1/DTD/svg11.dtd" >
<svg xmlns="http://www.w3.org/2000/svg" xmlns:xlink="http://www.w3.org/1999/xlink" version="1.1">
<metadata>
Created by FontForge 20201107 at Fri Jan  6 13:18:29 2017
 By Jimmy Wärting
Kelly Reed
</metadata>
<defs>
<font id="Alivia-Regular" horiz-adv-x="600" >
  <font-face 
    font-family="Alivia"
    font-weight="400"
    font-stretch="normal"
    units-per-em="1000"
    panose-1="0 0 5 0 0 0 0 0 0 0"
    ascent="800"
    descent="-200"
    x-height="256"
    cap-height="611"
    bbox="-437.348 -800 1025.13 1300"
    underline-thickness="50"
    underline-position="-100"
    unicode-range="U+0020-00BF"
  />
<missing-glyph horiz-adv-x="1050" 
d="M861 1300v-2100h-666v2100h666zM699 1159h-346v-69h136v-78h-138v-69h348v69h-138v78h138v69zM561 888h-210v-218h348v71h-138v147zM489 817v-76h-69v76h69zM699 613h-348v-69h138v-78h-138v-69h210v147h138v69zM699 487h-69v-138h-279v-72h348v210zM699 231h-210v-117
h72v48h69v-99h-210v168h-69v-237h348v237zM699 -132h-348v-238h348v238zM630 -202v-98h-210v98h210zM699 -418h-348v-69h147l-147 -99v-69h348v69h-214l147 99h67v69z" />
    <glyph glyph-name=".notdef" horiz-adv-x="1050" 
d="M861 1300v-2100h-666v2100h666zM699 1159h-346v-69h136v-78h-138v-69h348v69h-138v78h138v69zM561 888h-210v-218h348v71h-138v147zM489 817v-76h-69v76h69zM699 613h-348v-69h138v-78h-138v-69h210v147h138v69zM699 487h-69v-138h-279v-72h348v210zM699 231h-210v-117
h72v48h69v-99h-210v168h-69v-237h348v237zM699 -132h-348v-238h348v238zM630 -202v-98h-210v98h210zM699 -418h-348v-69h147l-147 -99v-69h348v69h-214l147 99h67v69z" />
    <glyph glyph-name="space" unicode=" " horiz-adv-x="280" 
 />
    <glyph glyph-name="A" unicode="A" 
d="M322 -49q0 14 1 21q2 16 10 38.5t18 45.5q20 48 68 136l25 47l-2 1q-59 4 -138 -24q-33 -10 -42 -16l-13 -16q-8 -12 -13 -18l-17 -26q-18 -25 -39 -62q-34 -60 -50 -91l-24 -45q-1 1 -1 4q0 4 3 11.5t4 12.5q46 104 130 221q-11 -2 -26.5 -10.5t-22.5 -11.5
q-59 -31 -129 -81q-1 0 -4 1t-2 4l20 13l17 12q34 24 53 36q46 27 76 40q29 13 34 17q3 7 8.5 14.5t9.5 13.5l21 29q10 12 14 18q56 76 86 110q44 50 80.5 84.5t77.5 59.5q28 16 47 21q10 2 14 2q14 0 20.5 -8t6.5 -21q0 -12 -6 -26q-9 -27 -21 -55q-9 -18 -27 -58l-16 -30
l-14 -25q-28 -54 -44 -81q-2 -5 -7.5 -13.5t-6.5 -12.5q0 -3 4.5 -6.5t6.5 -5.5q9 -8 13 -18.5t8 -26.5q3 -9 3 -21q0 -33 -16 -66q-7 -16 -20 -34.5t-16 -23.5q-38 -54 -85 -92q-14 -12 -30.5 -21t-27.5 -6q-19 8 -19 39zM294 221q11 4 15 5q6 2 14.5 4.5t20.5 5.5
q37 10 106 12q11 17 33 57q89 154 106 188q21 40 21 49q-1 7 -9 7q-21 0 -78 -44.5t-92 -84.5q-64 -72 -142 -181l-15 -23q9 1 20 5zM395 -58q25 18 40 35q24 26 35 44q4 6 15 21.5t17 27.5q26 49 26 88q0 25 -11 47q-1 4 -9 10t-12 10q-1 -4 -10 -18l-13 -24
q-13 -25 -44 -76q-5 -10 -24 -41l-11 -20q-13 -23 -25.5 -47.5t-17.5 -42.5q-4 -14 -4 -25q0 -10 3 -11q12 -5 45 22z" />
    <glyph glyph-name="B" unicode="B" 
d="M213 -129q-32 0 -32 25q0 20 14 45q22 40 67 80q58 51 94 51q12 0 17.5 -5.5t9.5 -14.5q-5 -3 -8.5 1t-8 7.5t-14.5 3.5q-7 0 -12 -1q-9 -2 -23 -9.5t-23 -14.5q-13 -8 -40 -33q-4 -4 -16.5 -17.5t-18.5 -22.5q-25 -36 -25 -58q0 -21 23 -21q16 0 43 12q50 25 109 87
q53 54 89 124q45 86 45 127q0 27 -25 27q-19 0 -41 -10.5t-55 -30.5l-34 -20q-10 0 -14.5 1t-4.5 6q4 9 13.5 18t18.5 17q9 9 54 46q40 32 49 41q23 19 68 62q5 6 17 16l16 16q16 16 31 36q11 17 11 27q0 7 -6 8q-9 3 -45 -12q-25 -11 -48.5 -25.5t-43 -28t-26.5 -18.5
q-47 -35 -107 -93q-5 -5 -18 -17t-18 -21q-7 -12 -19 -38l-16 -32l-17 -34l-18 -35l-14 -31q-34 -76 -53 -110q-4 -8 -9.5 -17.5t-11.5 -20.5q-12 -22 -22 -36q-1 -2 -8.5 -15t-20.5 -17q-2 -1 -6 -1q-5 0 -6 3t-0.5 7.5t0.5 7.5q1 19 15 59q26 67 92 193q37 69 72 138
l27 52l19 36q12 22 14 26l12 25q14 31 26 48t29 20q12 2 19 2q9 0 13 -2.5t0 -8.5q-69 -121 -99 -186q7 4 20 17q42 41 102 89q31 24 81 52t76 34q12 2 16 2q15 0 24.5 -6.5t9.5 -18.5q0 -4 -2 -12q-9 -24 -45 -65q-44 -49 -107 -100l-17 -13q-26 -20 -39 -32q5 1 21.5 6
t30.5 5q43 0 43 -48q0 -31 -15 -71l-13 -38q-36 -84 -108 -153t-148 -88q-24 -4 -30 -4z" />
    <glyph glyph-name="C" unicode="C" 
d="M177.5 -122.5q-11.5 5.5 -18.5 13.5q-15 16 -15 56q0 47 18 93q16 42 61.5 128.5t79.5 138.5q33 51 56 80.5t63 68.5q36 36 83 62t90 30q57 4 57 -40q0 -18 -12 -49q-16 -41 -33 -71q-9 -16 -36 -50q-17 -24 -38 -45q-33 -36 -37 -36q-3 0 31 36q73 77 101 152
q14 40 14 58q0 20 -12 25q-10 5 -22 5q-10 0 -27 -5q-47 -17 -112 -84q-54 -54 -84 -100q-27 -41 -62.5 -103.5t-52.5 -97.5q-40 -88 -58.5 -135.5t-18.5 -80.5q0 -19 8 -30q7 -11 19 -14q10 -2 15 -2q13 0 26.5 5t25 10.5t15.5 7.5q31 21 51 39q46 36 92 95q26 29 39 60
q9 20 9 35q0 17 -17 17q-11 -1 -19.5 -7.5t-19.5 -17.5q-15 -24 -28 -54q-3 2 -3 6q0 5 5 15q4 10 11 22t13 18q9 9 23.5 16t26.5 7q15 0 18 -12q4 -13 -10 -47q-11 -24 -30.5 -47.5t-25.5 -30.5q-30 -35 -65 -66.5t-67 -49.5q-29 -17 -52.5 -25.5t-50.5 -5.5
q-13 1 -24.5 6.5z" />
    <glyph glyph-name="D" unicode="D" 
d="M603 524q25 0 37.5 -14.5t12.5 -40.5q0 -23 -9 -51q-14 -47 -29 -80q-26 -55 -37.5 -77t-39.5 -68q-77 -125 -160 -211q-41 -43 -77 -66q-46 -32 -89 -42q-18 -4 -25 -4q-15 0 -21 7q-4 4 -4 17q0 9 3 17q6 16 27 35.5t37 26.5q14 6 21 6q11 0 8 -11q-3 0 -5.5 2.5
t-6.5 2.5q-8 0 -20 -8q-10 -6 -25.5 -20.5t-19.5 -23.5q-10 -17 -10 -27q0 -14 15 -14q6 0 10 1q34 9 79 50q20 19 40.5 43.5t26.5 31.5l13 16q44 54 81 106l12 20q58 90 85 139.5t57 126.5q9 22 15.5 41.5t6.5 30.5q0 23 -26 23q-10 0 -22 -3q-41 -8 -94.5 -47t-102.5 -91
q-18 -18 -26 -28q-19 -21 -57 -69q-4 -5 -10 -11t-8 -11q-4 -7 -8.5 -18.5t-8.5 -18.5q-10 -20 -28 -62q-29 -63 -60 -126l-17 -36q-13 -30 -19 -40q-4 -6 -9 -16t-10 -16t-11 -7q-9 -3 -22 -3q-23 0 -24 7l21 44q4 12 15 34q60 115 111 233q20 45 23 51l35 81q18 43 50 127
q8 19 17 30t23 11q6 0 9 -1q14 -7 14 -18q-1 -8 -6 -21t-7 -19q-10 -30 -38 -98q-27 -67 -32 -82q56 67 102.5 113.5t100.5 81.5q34 21 61 31q32 13 55 13zM49 -87z" />
    <glyph glyph-name="E" unicode="E" 
d="M128 -154.5q-14 11.5 -20 28.5q-4 11 -4 30q0 38 22 82q45 89 119 168q71 78 131 115q-33 7 -43.5 13t-10.5 26q0 8 1 13q4 33 44 89q74 104 152 156q85 54 133 54q49 0 49 -53q0 -28 -15 -62q-9 -18 -27 -44l-16 -20q-1 -1 -6.5 -8t-12.5 -7q1 4 7 10.5t10 10.5
q18 23 32 50.5t17 48.5q1 6 1 17q0 38 -31 38q-35 0 -92 -45q-71 -56 -121 -119q-38 -49 -52 -70q-10 -15 -16.5 -33t-6.5 -31q0 -10 4 -15q5 -4 15 -4q9 0 22.5 5t26.5 10q18 8 26 10q8 3 22 3q12 0 11 -5t-10.5 -10.5t-12.5 -7.5l-19 -12q-38 -22 -55 -35
q-114 -89 -188 -188l-27 -37q-20 -29 -34 -54t-21 -52q-2 -6 -2 -19q0 -25 10 -38q6 -7 17 -11.5t24 -4.5q32 0 79.5 26.5t94.5 68t77 84.5q18 29 18 54q0 24 -21 24q-11 0 -25.5 -6t-21.5 -8q0 5 12 10q20 10 42 10q12 0 17 -4q8 -8 8 -23q0 -25 -21 -61q-12 -22 -46 -58
q-27 -29 -53 -48q-69 -53 -127 -70q-20 -6 -41 -6q-9 0 -12 1q-19 2 -33 13.5z" />
    <glyph glyph-name="F" unicode="F" 
d="M51.5 -140.5q-12.5 5.5 -22.5 16.5q-13 11 -13 30q0 14 7 29q11 27 32 53t45 44q29 23 55 23q17 -2 17 -16q0 -10 -9 -24q-2 1 -2 3q0 1 3 10q2 10 -1 15.5t-11 5.5q-5 0 -17 -5q-20 -9 -41 -27.5t-36 -38.5q-14 -19 -23.5 -39.5t-9.5 -35.5q0 -18 16 -29t41 -11
q16 0 31 4q30 7 53.5 27.5t42.5 43t25 29.5q49 64 86 121q27 45 60 107l21 39q-23 -7 -50.5 -20t-53.5 -27l-14 -7t-21 -7q2 4 8.5 7t9.5 5q23 12 95 46l31 15q15 29 49 101q-5 0 -13 -4l-12 -6q-32 -14 -68 -23t-64 -9q-22 0 -35 6.5t-13 18.5q0 13 12 27.5t28.5 24.5
t27.5 10q12 0 12 -11q-4 3 -12 3q-17 0 -35.5 -16t-18.5 -30q0 -7 6 -12q5 -5 20 -5q13 0 31 4t33 12q66 27 146 80q60 41 126 74t100 33q27 0 27 -25q0 -23 -20 -52q-5 -7 -13 -16.5t-10 -8.5q-2 0 -2 2q0 3 5 8.5t6 7.5q17 24 22 37q2 10 2 14q0 21 -21 21q-6 0 -10 -1
q-22 -5 -48.5 -21.5t-60.5 -41.5l-20 -15q-5 -5 -20 -15q-14 -9 -19.5 -14.5t-11.5 -17.5l-30 -55q-16 -31 -26 -56q18 5 41 14q6 2 20.5 7t20.5 5q8 0 5 -7q-5 -1 -9 0t-9 0l-4 -2t-6 -2q-6 -2 -13.5 -4t-13.5 -4l-36 -15q-53 -104 -117 -210q-53 -84 -121 -137
q-40 -32 -73.5 -49t-75.5 -17q-21 0 -33.5 5.5z" />
    <glyph glyph-name="G" unicode="G" 
d="M139 -181q-8 7 -10 25q-1 14 5.5 32.5t20.5 37.5q25 32 51.5 50.5t46.5 18.5q12 0 22 -8q6 -4 8 -7.5t-1 -10.5q-5 1 -8 6.5t-6 6.5q-7 4 -19 4q-9 0 -13 -1q-21 -6 -47 -32t-37 -53q-8 -17 -8 -32q0 -16 10 -24.5t26 -8.5q19 0 38 10q45 23 70 54t67 110q37 70 71 141
q25 56 36 74q-3 0 -11 -8q-93 -95 -161 -128q-25 -12 -45 -12q-40 0 -54 42q-3 11 -3 24q0 43 29.5 107t73.5 128q47 67 106 139t106 116q42 42 95.5 75.5t91.5 33.5q18 0 29 -7q17 -8 17 -34q0 -41 -46 -124q-32 -57 -100 -118q-1 -1 -6 -6.5t-9 -4.5q4 8 12.5 16t11.5 11
l25 27q24 28 39.5 48.5t28.5 45.5q28 49 28 85q0 20 -10 30q-3 3 -9.5 4.5t-13.5 0.5q-25 -3 -76 -45q-101 -84 -199 -210q-17 -24 -21 -30l-17 -24q-4 -5 -13.5 -18t-15.5 -22q-30 -46 -56.5 -96.5t-40.5 -90.5q-8 -20 -12 -34q-4 -15 -4 -29q0 -25 21 -25q13 0 25 5
q40 15 82 48q34 25 52 43l52 47q0 1 10.5 17.5t29 34.5t32.5 19q5 0 8 1t4 1q2 0 2 -2q0 -4 -2 -9q-14 -35 -49 -112l-10 -22q-6 -14 -21.5 -49t-29.5 -63q-12 -21 -38 -63q-19 -30 -29 -44q-32 -44 -83 -78q-64 -42 -111 -42q-25 0 -38 8z" />
    <glyph glyph-name="H" unicode="H" 
d="M55 -79q-4 29 21 60q11 15 28.5 30t35.5 29q49 42 83 59q3 1 7 3l8 4q5 6 13 22t13 24q13 23 54 100q14 28 22 42l33 65q47 92 67 126q12 18 22 29t21 16q8 2 14 2q14 0 17 -7q3 -6 -4 -22.5t-17 -34t-14 -25.5l-139 -265q8 2 17.5 8.5t13.5 8.5q14 9 38 27l21 16
q4 3 14 10t15 14q8 9 15 24.5t10 22.5q42 78 65 117q13 18 14 20q8 12 11 18l18 29l14 17q49 71 102 100q14 8 36 8q18 0 25 -7q3 -3 3 -9q0 -14 -12.5 -35t-31.5 -49q-27 -39 -57.5 -71t-73.5 -72q-5 -5 -14.5 -12.5t-13.5 -13.5q-8 -10 -20 -36l-9 -18q-15 -25 -29 -54
q-43 -84 -94 -196l-8 -20q-17 -45 -33 -76.5t-34 -32.5q-11 0 -13 1q-12 -2 -12 10q0 11 10.5 38.5t25.5 64.5l10 24q1 3 2 7t3 9l24 53q18 38 28 57q15 28 30 62q-4 0 -8.5 -3.5t-6.5 -4.5l-18 -13q-36 -26 -56 -39q-4 -3 -14.5 -9t-14.5 -11q-8 -9 -15 -23.5t-9 -17.5
q-43 -76 -73 -113q-27 -34 -57 -60q-24 -21 -46.5 -34t-46.5 -13q-9 0 -14 1q-15 9 -16 19zM612 396l17 17q47 49 60 66l13 16q2 3 3.5 6t3.5 6l8 9q3 4 5 8.5t5 8.5l8 9q7 10 12.5 24.5t5.5 23.5q0 12 -9 9q-6 -2 -15 -13l-47 -56l-21 -30q-2 -2 -5 -5.5t-4 -5.5
q-10 -14 -30 -46q-30 -49 -43 -77q3 2 33 30zM152.5 -46q22.5 32 51.5 90l27 51h-1q2 1 0 1t-3 -1q-30 -16 -81 -60q-6 -5 -24 -19.5t-30.5 -29t-20.5 -30.5q-6 -12 -6 -26q0 -11 4 -15t15 -5t14 -1q32 13 54.5 45z" />
    <glyph glyph-name="I" unicode="I" 
d="M126 -89q0 5 2 17q7 27 21 51.5t35 39.5q32 24 56 20q-3 -2 -10.5 -3.5t-10.5 -2.5q-9 -4 -12 -5q-50 -31 -64 -72q-10 -23 -10 -45q0 -7 1 -10q2 -10 10.5 -16.5t21.5 -6.5q10 0 16 2q13 4 28 17t18 15q32 28 59 61t57 79l20 37l21 38q22 35 40 79q3 6 3 16v42t4 69
q2 18 8 46l4 21q11 48 19 71q16 46 43 82.5t60 53.5q4 0 6.5 1t4.5 2t12 1q6 0 9 -1q2 -1 5 -5t5 -5q3 -1 8 -1t7 -1q4 -3 4 -12q0 -12 -7 -40q-8 -34 -19 -62q-52 -141 -108 -259q-9 -22 -22 -44q-3 -6 -11.5 -20t-9.5 -22l-1 -5q0 -7 4.5 -15.5t5.5 -11.5l27 -58
q4 -10 7 -15q1 -2 4.5 -5.5t0.5 -9.5h-3q-4 0 -9 9q-8 12 -23 47q-13 31 -23 47l-16 -25q-31 -51 -55 -82q-43 -57 -107 -103q-43 -31 -79 -40q-8 -2 -17 -2q-7 0 -9 1q-31 9 -31 40zM489 350q5 10 13 30q20 46 29 70q10 23 13 28q4 11 9 21.5t9 20.5q4 8 7 22q12 37 24 55
q-8 8 -17 3q-15 -6 -26.5 -16.5t-30.5 -30.5q-13 -17 -26.5 -43.5t-18.5 -45.5q-2 -7 -4 -12t-3 -10q-3 -9 -4.5 -17t-2.5 -13l-3 -16l-3 -9q-8 -40 -13 -87q0 -4 -1 -11t1 -10q-3 -9 -3 -18l1 -21q20 36 50 110z" />
    <glyph glyph-name="J" unicode="J" 
d="M90 -129q0 32 24 64q28 35 70 48q20 5 24 5q10 2 16 2q11 0 16 -4q-67 0 -107 -40q-25 -27 -33 -51q-2 -8 -2 -13q0 -10 4.5 -18t11.5 -11l5 -1q5 0 20 5q27 12 51 34.5t54 59.5q37 45 74 98l23 35q3 4 4.5 8t4.5 8l11 16l13 26q30 50 78 143l14 26q5 9 20.5 39t26.5 56
q-9 -3 -19.5 -10.5t-15.5 -11.5q-35 -22 -73 -39q-30 -11 -39 -13q-14 -3 -23 -3q-19 0 -30.5 9t-15.5 24q-3 13 -1 18q5 21 19 33.5t33 15.5q1 -1 4 -2.5t1 -5.5q-11 4 -23 -3.5t-19.5 -21t-7.5 -24.5q0 -15 11.5 -24.5t28.5 -7.5l7.5 2.5t8.5 1.5q34 14 64 34.5t82 60.5
q10 6 24 18q5 5 10.5 10t10.5 10q4 6 9 15t11 13q5 3 11.5 4.5t8.5 2.5q7 6 49 40.5t82.5 58t75.5 31.5l10 1q14 -1 21 -9t12 -21q-2 -7 1 -10q-1 -3 -3 -13t-11 -14q-2 0 -2 2q1 3 2 5t2 3q3 9 3 17q0 14 -7 22.5t-21 8.5q-11 0 -20 -4q-21 -8 -49 -31q-36 -27 -98 -87
l-33 -31q-24 -52 -59 -117q-30 -56 -50 -99l-20 -34q-5 -8 -13 -23.5t-15 -26.5q-4 -7 -7 -13.5t-6 -12.5q-46 -85 -107 -169q-34 -44 -51 -61q-28 -29 -61.5 -51t-63.5 -30q-12 -4 -29 -4q-14 0 -21 4q-11 7 -11 27z" />
    <glyph glyph-name="K" unicode="K" 
d="M311 -121q-7 15 -7 45q1 43 8 98q4 37 5 58l2 20q1 11 2 26t1 34q0 41 -13 63q-13 -23 -37 -73l-12 -25l-26 -50l-15 -26q-10 -17 -11 -20q-3 -5 -9.5 -18t-13.5 -20.5t-15 -5.5q-6 0 -2 12q3 11 13 33q8 13 12 27l16 36q14 30 20 45q22 51 64 157l26 61q18 40 26 60
l8 19q49 118 84 184l21 37q16 24 30 26h4q11 0 16 -5q-1 -16 -9.5 -39.5t-18.5 -47t-14 -32.5q-22 -54 -77 -168q-28 -57 -47 -98q5 4 10 10.5t7 9.5l30 39l18 25q33 40 68 77l26 26q63 61 82 77q25 23 38 31q14 9 33 16.5t30 4.5q7 -2 10.5 -9t2.5 -16q-4 -23 -25 -52.5
t-44 -47.5l-21 -14q-18 -9 -25 -9q7 7 19.5 13.5t17.5 10.5q20 16 40.5 45.5t23.5 51.5q0 19 -8 20q-8 2 -35 -10q-16 -8 -33 -22t-31.5 -28t-20.5 -19q-93 -87 -155 -166l-54 -71q-4 -6 -10 -14t-7 -10v-2q0 -3 4 -6.5t6 -5.5q24 -32 24 -95q0 -36 -7 -90q-6 -40 -10 -60
q-6 -39 -8 -51q-5 -27 -5 -46q0 -31 17 -44h29q25 14 47.5 35t31.5 48q6 16 6 34q0 12 -3 20q-6 15 -19 14q-8 -1 -13.5 -9t-11.5 -20q-8 4 1 17.5t18 16.5q13 4 22.5 -4t11.5 -18q2 -5 2 -19q0 -22 -8 -39q-9 -20 -28 -41t-38 -33q-20 -13 -41 -13q-5 0 -13 2q-20 4 -33 27
z" />
    <glyph glyph-name="L" unicode="L" 
d="M219 -154q-24 0 -36 18t-10 42q3 21 6 30q18 62 77 187q7 15 29 57q2 5 5.5 14.5t7.5 15.5l17 38l6 10t6 11q2 5 4.5 11t5.5 11l14 28q2 5 6.5 13.5t7.5 14.5q17 34 47 102q2 4 6 9.5t6 10.5l6 12t5 11q11 23 24 48t27 45q2 3 8.5 13.5t13.5 16.5t15 8q17 3 17 -14
q0 -15 -17 -61q-10 -28 -16 -42q-5 -10 -10 -19t-9 -18q-5 -11 -31 -66l-27 -57q-3 -6 -6 -10.5t-5 -8.5l-20 -43l-31 -65q-23 -52 -48 -104l-15 -33q-8 -22 -21 -46l-9 -18q-23 -46 -27 -55l-10 -22q-20 -45 -26 -69q2 -3 2.5 -8t4.5 -6q12 -3 37.5 11t41.5 28q9 8 47 48
q45 52 69 68q27 23 50 20q8 -1 11.5 -9t3.5 -20q0 -9 -1 -13h-1q-5 0 -5.5 8t-4.5 8q1 17 -12 17t-32 -14q-24 -18 -61 -61q-22 -26 -36 -40q-39 -39 -74 -55q-21 -8 -33 -8z" />
    <glyph glyph-name="M" unicode="M" 
d="M-98 -170q-7 0 -8.5 4.5t-1.5 13.5q2 14 8.5 32t7.5 22l10 29q2 5 3.5 11.5t4.5 13.5l33 81l19 45l27 64l13 33q3 8 7.5 18.5t6.5 16.5l17 41l12 27q22 58 45 90q11 18 18 24q11 8 23 8q9 0 14.5 -4t4.5 -11q-33 -69 -89 -211q105 144 208 220q11 7 23 13.5t21 6.5
q8 0 14 -6q1 -1 1.5 -4t1.5 -4q2 -10 2 -16q0 -26 -14.5 -63.5t-42.5 -99.5q21 21 42 45q30 31 63 65.5t62 59.5q30 27 90 77q6 4 18 14q18 16 28 23q28 22 50.5 35.5t49.5 21.5q10 2 13 2q16 0 25 -9.5t12 -21.5q-2 -57 -87 -158q-43 -54 -137 -160q-67 -75 -96 -110
l-11 -14q-2 -2 -34 -40q-17 -19 -33 -38.5t-29 -38.5q-6 -9 -16 -26q-9 -17 -15.5 -23.5t-20.5 -7.5h-1q-6 0 -6 6q0 4 3 11t4 10q14 49 72 127q28 38 67 84t77 89q70 78 102 117q40 45 60 77q50 77 50 95q0 7 -7 6q-47 -7 -115 -63t-101 -88l-30 -29q-38 -35 -68 -66
l-17 -18q-56 -58 -66 -70q-9 -9 -11 -13q-3 -4 -7 -12t-8 -14l-28 -55l-17 -27l-16 -29q-18 -33 -32 -55q-4 -8 -14 -27.5t-17.5 -27.5t-17.5 -10q-2 -1 -6 -1q-9 0 -11 4q28 74 54 119l24 47l62 121l34 65q12 24 24.5 49.5t17.5 44.5q3 12 3 13q0 7 -6 7q-3 0 -9 -3
q-32 -18 -58 -42.5t-75 -75.5q-35 -39 -82 -102q-26 -37 -25 -36q-9 -13 -16.5 -32t-10.5 -25l-9 -25l-17 -40l-17 -43q-8 -20 -30 -66l-10 -20q-34 -64 -51 -67q-2 -1 -5 -1z" />
    <glyph glyph-name="N" unicode="N" 
d="M58 -120q-4 0 -8.5 2t-6.5 4t-2 8q0 11 8.5 30.5t11.5 28.5q20 50 56 126l27 59q8 16 38 72l28 55q35 72 60 114q7 13 18 27l12 17q17 27 31 38q18 6 18 -9q0 -10 -6.5 -25t-7.5 -17q-6 -15 -14.5 -31.5t-12.5 -25.5q-7 -13 -32 -66q-14 -32 -22 -47q-69 -137 -106 -226
q3 2 7 8t6 8q19 26 67 80l35 40q121 140 212 223q43 40 90 64q26 15 41 15q10 0 17 -7q8 -8 8 -29q0 -24 -12 -57q-6 -18 -24 -54q-8 -14 -11 -21q-13 -27 -31.5 -57t-22.5 -37l-24 -38q-18 -28 -20 -32q-4 -6 -19 -33l-12 -18l-12 -26l-14 -21q-21 -35 -57 -102l-6 -12
t-7.5 -12.5t-7.5 -5.5h-2q-7 0 -16 1.5t-12 1.5q3 27 43 108l10 22q40 85 101 174l9 15q9 16 26 41l9 19q2 2 5 5.5t6 8.5q3 4 5.5 10.5t5.5 10.5q3 6 6.5 11t6.5 10q31 57 41 89q6 22 4 24q-4 3 -15 -2.5t-21 -11.5q-9 -5 -32 -21q-47 -35 -62 -49q-105 -96 -223 -240
l-22 -26l-31 -38l-15 -18q-20 -26 -38 -46q-2 -4 -23 -35q-5 -8 -11 -19.5t-9 -17.5q-19 -31 -29 -35q-6 -2 -10 -2z" />
    <glyph glyph-name="O" unicode="O" 
d="M186 -110q-21 0 -32 11.5t-18 30.5q-6 18 -6 39q0 16 3 36q4 31 20 76q13 37 55 113l16 30q4 8 8 14.5t7 11.5l5 10t6 10q56 94 123 173q43 46 70.5 69t63.5 34q5 1 11 2t13 3q5 1 13 5.5t14 6.5q4 1 10 1q2 1 4.5 2.5t4.5 1.5q12 2 19 2q13 0 23.5 -3.5t15.5 -8.5
q17 -18 17 -55q0 -35 -17 -93l-10 -26q-29 -77 -79 -156q-48 -76 -128 -168q-50 -59 -93 -97q-63 -56 -108 -70l-10 -2q-12 -3 -21 -3zM193 -101q12 0 24 5q31 10 64 34t62 54l36 39q70 72 137 175q2 3 3.5 6t3.5 6l9 11q3 5 4.5 9.5t3.5 7.5q10 13 11 15l18 35
q8 14 15 29.5t9 21.5q1 4 8 20q3 8 8.5 19.5t7.5 17.5q2 4 2.5 7t0.5 5q1 3 2.5 6.5t2.5 6.5q8 26 12 69q1 24 -3 39.5t-17 23.5q-5 1 -11 3t-10 2q-12 0 -27.5 -6.5t-22.5 -9.5q-1 -7 -7.5 -11.5t-9.5 -7.5l-13 -11q-92 -71 -177 -203q-12 -16 -15 -23l-8 -15
q-11 -15 -10 -13l-11 -21l-13 -20q-53 -103 -84 -173q-10 -23 -18.5 -46.5t-9.5 -37.5q0 -2 -1 -4t-1 -4q-1 -7 -1 -20q0 -28 12 -37q4 -4 14 -4z" />
    <glyph glyph-name="P" unicode="P" 
d="M119 -100q0 7 11 36q8 25 32 77l14 32q70 160 134 298q38 84 54 112q13 23 21.5 35.5t20.5 18.5q10 4 18 4q7 0 12 -2t7 -5q3 -5 -1.5 -15.5t-10.5 -22t-8 -15.5q-3 -5 -5.5 -10t-4.5 -8q-18 -35 -35 -77q7 5 15 15l12 15l27 31l18 19q46 50 81 81.5t77 49.5q7 3 18 6
t18 5q8 3 17 3q11 0 21.5 -3.5t15.5 -7.5q15 -12 13 -42q0 -28 -10 -57q-31 -76 -82 -146q-47 -63 -100 -116q-37 -39 -82 -76.5t-87 -61.5q-43 -25 -64 -31q-6 -2 -16 -2q-18 0 -18 15q0 8 7 25q5 13 9.5 19.5t11.5 8.5v-1q0 -4 -6 -13q-10 -17 -10 -30q0 -12 11 -12
q5 1 32 17q42 26 84 63q119 101 201 211q25 34 64 101q14 26 19 38q14 37 14 63q0 8 -1 11q-5 18 -32 18q-19 0 -46.5 -12.5t-50.5 -28.5q-35 -24 -66 -57t-78 -89l-23 -28q-6 -6 -11.5 -13.5t-12.5 -15.5l-7 -8q-12 -17 -22 -44l-11 -24q-22 -48 -26 -59q-7 -15 -27.5 -60
t-39.5 -82l-21 -38q-39 -73 -52 -95q-8 -14 -15.5 -22t-17.5 -8t-10 10z" />
    <glyph glyph-name="Q" unicode="Q" 
d="M282 -160q-16 0 -27 8t-15 19q-4 9 -4 24q0 16 4 36t5 24l-15 -1q-16 0 -29 5q-18 9 -27 28t-9 43q0 29 8 67q14 58 72 170q3 7 7.5 16.5t11.5 21.5q3 5 5.5 9t4.5 7q3 5 5.5 10.5t5.5 10.5q2 5 6 10t6 8q4 10 8 16q62 97 119 145q31 27 43 32q6 2 12 2.5t12 1.5
q5 1 14.5 7.5t15.5 9.5q38 18 65 18q35 0 48.5 -19t13.5 -52q0 -11 -2 -31t-6 -37q-1 -2 -2.5 -4.5t-2.5 -6.5v-5q0 -6 -4 -14t-6 -13l-5 -16q-7 -19 -19.5 -41.5t-16.5 -30.5q-5 -8 -10 -19.5t-8 -17.5l-21 -35l-18 -29l-23 -33l-6 -10q-9 -13 -18 -23q-41 -55 -75 -90
q-35 -38 -71 -66q-4 -3 -13 -8.5t-12 -9.5q-6 -7 -8.5 -18t-3.5 -15q-4 -10 -6 -13q-6 -27 -9 -45q0 -5 -1 -10t-1 -11q0 -14 11 -14q9 0 22 6.5t21 13.5q19 15 32.5 41.5t13.5 46.5l-1 8v1q0 2 -3 7t-1 9q6 -1 8 -5.5t3 -12.5l1 -11q0 -33 -26 -63.5t-57 -47.5
q-11 -4 -22 -4zM289 48q23 43 48 72q11 6 21 6q13 0 13 -9t-9 -27.5t-18 -33.5q-15 -27 -27 -62q7 3 16 10t12 10l27 24q63 58 135 163q2 3 4.5 6t4.5 6t3.5 6.5t4.5 8.5l8 10q3 5 5.5 10.5t6.5 12.5q8 10 8 11q4 6 8.5 16.5t8.5 17.5q2 5 15 28q18 34 23 48l7 20q6 10 9 23
q15 47 15 85q0 21 -7 42q-4 13 -15.5 21t-29.5 8q-17 0 -29 -3t-29 -11q-22 -10 -28 -17q-3 -2 -7 -8.5t-8 -10.5q-56 -67 -76 -95q-17 -22 -29 -41l-8 -13l-10 -14q-2 -4 -3.5 -7.5t-3.5 -7.5l-10 -13q-7 -12 -19 -36l-20 -37l-16 -26q-5 -10 -9 -19.5t-8 -17.5
q-39 -75 -52 -110q0 -3 -0.5 -6.5t-2.5 -9.5t-4.5 -12.5t-4.5 -14.5q-11 -42 -11 -56q0 -13 10 -24t29 -11q8 0 12 1q17 44 40 87zM305 -149q-2 -1 -5 -1.5t-5 -1.5q6 0 10 3z" />
    <glyph glyph-name="R" unicode="R" 
d="M332 -150q-6 0 -11 5q-14 13 -13 30l4 11q1 3 0.5 5t0.5 4q3 12 14 32q11 15 10 13q3 4 4.5 8t3.5 7q8 12 44 57q48 63 80 127q24 46 32 70q8 29 8 50q0 16 -4 25q-1 3 -3.5 8.5t-5.5 8.5q-7 7 -16 7q-4 -1 -10 -4l-10 -5l-20 -10q-3 -1 -14.5 -4.5t-17.5 -3.5q-8 0 -7 5
q1 7 10 11t12 6q5 2 25 12l20 5q16 6 60 43q69 51 112 101q22 27 39.5 56.5t17.5 49.5q0 9 -3.5 17t-9.5 10q-2 1 -8 1t-10 -1q-22 -2 -43.5 -13t-40 -23t-25.5 -16q-38 -33 -92 -91l-27 -29q-3 -3 -26 -31q-7 -8 -14.5 -17t-15.5 -18l-18 -21q-25 -25 -38 -45
q-11 -21 -17 -42q-4 -13 -16 -41q-3 -12 -5 -17q-7 -20 -33 -78l-17 -40q-5 -11 -29 -62l-10 -21q-10 -23 -19 -40q-5 -10 -12 -20.5t-11 -13.5q-7 -5 -17 -5q-9 0 -10 4q-5 8 13 63q12 35 29 76q18 44 32.5 80.5t26.5 65.5l33 84l8 20q19 48 26 63l20 44q14 33 28 50t36 17
h2q8 0 13 -5t4 -12t-7.5 -18.5t-9.5 -18.5q-29 -61 -49 -109q10 8 18.5 19.5t11.5 15.5l30 34q27 33 29 35q31 37 29 35q19 21 62 62q49 44 104 72q34 19 64 19q13 0 21 -4q7 -4 13.5 -15t6.5 -20q0 -31 -29 -75q-31 -47 -93 -99q-17 -15 -34 -27l-17 -13q-6 -4 -12 -9
t-14 -10q-25 -14 -26 -18v-1q0 -3 6.5 -4.5t7.5 -3.5q16 -19 19 -43q-1 -32 -23 -85q-8 -21 -18 -42q-2 -3 -5.5 -7.5t-6.5 -10.5q-19 -36 -29 -51l-8 -10q-4 -6 -8 -13t-10 -14q-7 -10 -23 -30q-25 -32 -40 -54.5t-28 -49.5q-10 -20 -10 -32q0 -7 5 -14q1 -2 4.5 -5.5
t4.5 -7.5q-2 -1 -5 -1z" />
    <glyph glyph-name="S" unicode="S" 
d="M159 -137q-10 16 -10 38q0 48 37 101q15 24 31 39q12 11 26 22.5t30 20.5q36 20 56 19q4 0 8 -2t3 -7q-4 0 -8 1.5t-8 1.5q-16 0 -54 -23q-25 -17 -48.5 -41.5t-36.5 -49.5q-24 -48 -24 -85q0 -30 17 -43q9 -5 25 -5q19 0 39 7q25 10 54 36t44 51q6 14 9 19q23 44 33 97
q5 30 9 86q3 37 8 83.5t15 98.5q2 66 10 102q8 38 16.5 65t25.5 54q20 35 63 69q26 19 58 29.5t65 8.5q22 -1 38 -16.5t18 -33.5q3 -33 -20.5 -78.5t-54.5 -83.5q-21 -28 -37 -27v2q0 3 3.5 5t4.5 3q32 29 60 79.5t28 86.5q0 16 -7 26q-5 9 -16.5 14.5t-26.5 5.5
q-16 0 -27 -5q-40 -21 -70.5 -60t-44.5 -88q-12 -39 -14 -54q-13 -67 -24.5 -139t-11.5 -111l-4 -44q-7 -52 -17 -93.5t-34 -80.5q-14 -22 -42 -50t-52 -45q-46 -30 -93 -30q-7 0 -21 2q-18 6 -28 22z" />
    <glyph glyph-name="T" unicode="T" 
d="M77 -171q-19 8 -25 21q-4 11 -4 30q1 16 3.5 28t11.5 26q8 13 20.5 26t24.5 21q18 12 29 12q6 0 9 -3q-6 -3 -13.5 -5.5t-11.5 -5.5q-16 -11 -32.5 -30t-23.5 -36q-7 -18 -7 -36q0 -24 9 -33q11 -14 50 -14q11 0 28.5 4t29.5 12q56 31 123 133q4 6 9 15t8 14l47 77
l79 126q2 2 12 23l12 17q3 5 4.5 9.5t3.5 7.5q3 5 7 10t7 10l9 17q2 5 5.5 9t5.5 9l46 82l12 20l23 37q-24 -2 -35 -4q-10 -2 -26 -4q-58 -6 -119 -9q-21 -1 -61 -1q-2 0 -5 -1t-5 -1l-8 1l-10 -1h-6l-22 1q-59 0 -85 5q-65 11 -65 46q0 4 2 12q4 13 22 31q12 12 30.5 23
t32.5 14q8 2 31 5q16 2 22 2q8 0 11 -1q11 -3 21 -8.5t10 -12.5q-1 -10 -13 -19.5t-18 -1.5q1 3 5 5t6 4q3 5 3 8q0 10 -24 15q-4 1 -14 1q-19 0 -40 -6.5t-38 -18.5q-16 -11 -25.5 -25t-9.5 -26t10 -19h2q1 0 4 1t4 0q7 -9 25.5 -12.5t50.5 -4.5q2 0 5 1t5 1t4 -1t5 -1
q2 0 5 1t5 1l8 -1q14 0 42 2q42 2 123 12q101 11 161 25q19 21 41 21q12 0 20 -7q39 10 50 13q68 18 115 28l56 13q69 19 108 22h2q7 0 13.5 -2.5t5.5 -6.5q-3 -11 -43 -22q-23 -8 -46 -13q-23 -6 -91 -22q-62 -14 -93 -23q-62 -16 -92 -25q-27 -36 -48.5 -73t-26.5 -45
q-3 -5 -4.5 -9.5t-3.5 -7.5t-5.5 -7.5t-4.5 -8.5q-27 -47 -39 -66q-3 -5 -4.5 -9.5t-4.5 -9.5q-13 -17 -16 -24q-3 -4 -4 -7t-2 -5q-3 -6 -12 -17q-10 -15 -11 -17q-78 -135 -116 -178q-14 -16 -20 -24q-31 -37 -42 -49l-9 -12q-1 -1 -3.5 -2.5t-4.5 -4.5q-3 -2 -4.5 -4.5
t-3.5 -4.5q-8 -8 -36 -29q-27 -18 -58 -29.5t-56 -11.5t-44 8z" />
    <glyph glyph-name="U" unicode="U" 
d="M381 -61.5q-7 16.5 -8 47.5q-1 6 -1 18q0 25 11 59q12 39 47 110l10 20q-17 -15 -45 -51q-8 -10 -54 -64l-36 -42q-36 -43 -62 -55q-12 -6 -23 -6q-3 0 -11 2q-26 12 -28 71q0 6 0.5 22t5.5 33q19 73 63 175q3 7 9 23t12 27q2 5 6.5 12.5t6.5 11.5q33 67 57 109
q4 6 10 18q12 22 19 32q3 5 32 47q2 3 11 16t18.5 20.5t19.5 9.5q3 1 9 1q7 0 11 -4q-1 -12 -10.5 -28.5t-12.5 -22.5l-12 -23q-34 -63 -45 -82q-19 -30 -35 -66l-12 -23q-3 -7 -8 -17t-11 -24q-3 -6 -6.5 -12.5t-7.5 -14.5q-7 -14 -17 -42l-13 -32q-32 -67 -46 -112
q-2 -6 -3.5 -11.5t-3.5 -11.5q-5 -16 -9 -32t-4 -27q-1 -12 3 -24t12 -12q10 1 35 23q43 40 87 93q11 12 20.5 24t18.5 23q44 57 74 83q1 3 3 5.5t3 3.5q22 37 42 57q9 9 20.5 15.5t19.5 2.5q7 -3 2.5 -13t-13.5 -25q-4 -7 -10.5 -20.5t-12.5 -23.5q-1 -2 -3.5 -6t-3.5 -6
q-3 -5 -4.5 -9.5t-3.5 -7.5q-47 -86 -71.5 -137.5t-28.5 -97.5q0 -38 20 -38q9 1 29 12q19 12 42.5 35t29.5 29q3 2 10.5 10t13.5 7v-1q0 -4 -4.5 -8t-6.5 -6q-43 -47 -73 -67q-32 -19 -52 -19q-25 0 -32 16.5z" />
    <glyph glyph-name="V" unicode="V" 
d="M235 17q0 16 1 24q3 35 15 77q10 34 37 104q27 69 48 112q35 79 56 111q11 17 27.5 33t28.5 20q3 1 8.5 1t7.5 1q5 10 5 27q0 9 -2 23q-1 4 -4.5 18.5t-9.5 22.5q-5 8 -15.5 13t-24.5 5q-15 0 -31 -6q9 12 37 12q21 0 32 -8t14 -17.5t9 -34.5q5 -17 5 -33q0 -6 -2 -16
q-1 -4 -2.5 -9t-2.5 -10q-2 -14 -2 -20q0 -28 10 -62q11 -48 51 -52q10 -1 21.5 1t16.5 3l31 50q24 39 39.5 62t36.5 42q6 6 14 9.5t15 3.5q14 0 17 -10q4 -15 -10 -42q-16 -30 -43.5 -57.5t-54.5 -42.5q-6 -3 -16.5 -8t-17.5 -11l-20 -36q-10 -22 -17 -33q-3 -5 -6 -9
t-6 -9q-3 -7 -7.5 -16.5t-8.5 -15.5q-2 -4 -4.5 -6.5t-3.5 -4.5l-13 -26q-3 -7 -7 -12.5t-6 -9.5q-5 -9 -21 -37.5t-33 -52.5l-57 -82q-14 -14 -20 -22q-3 -3 -12 -13t-17.5 -16.5t-17.5 -9.5q-10 -2 -14 -2q-7 0 -17 2q-37 13 -37 75zM611.5 376q12.5 8 16.5 10
q20 13 36 30q3 4 5.5 7t4.5 5q19 26 30.5 46t9.5 33q-6 10 -14 10q-10 0 -23 -14t-34 -44l-30 -47q-19 -30 -25 -46q11 2 23.5 10zM341 -19q20 22 39 48q30 41 71 106q1 2 9 17l10 14l25 47q13 27 24 46q31 51 48 91q-11 -4 -28 -4q-33 0 -49.5 17t-21.5 41t-6 59q1 1 0 1
q-4 -6 -7.5 -12t-7.5 -12q-14 -22 -36 -72q-6 -15 -20 -45q-20 -43 -25 -55q-61 -155 -84 -240q-11 -39 -10 -56q0 -10 6.5 -18.5t17.5 -7.5q15 2 45 35z" />
    <glyph glyph-name="W" unicode="W" 
d="M276 -65.5q-16 14.5 -25 36.5q-9 19 -9 53v11q0 8 -1 8q-4 0 -19 -15q-41 -38 -96 -72q-31 -21 -55 -21q-9 0 -17 5q-7 5 -13.5 14.5t-8.5 18.5q-1 3 -1 10q0 39 59 133q26 41 73 97q28 34 57 66q23 25 46 53t41 54q19 27 30 55.5t11 49.5q0 22 -11 30q-6 5 -19 5
q-22 0 -56 -17q-26 -16 -50 -38q-49 -44 -69 -106q-4 -9 -6 -22v-9t-4 -10h-1q-5 0 -5 4q0 3 1 5t1 4q4 39 33.5 86t65.5 75q24 19 32 24q27 15 66 21h12q46 -5 53 -49q2 -14 2 -20t-2 -16q-2 -5 -4.5 -10.5t-4.5 -12.5q-6 -16 -18 -36l-8 -16q-4 -7 -32 -42l-32 -40
l-29 -32q-22 -22 -38 -42q-28 -30 -65 -78q-34 -45 -46 -65l-11 -19l-22 -40q-17 -34 -17 -54q0 -21 19 -21q16 0 44 16q37 21 98 73q15 13 17 17q3 5 4 16t2 16q13 62 40 102q13 20 46 53q5 6 10.5 11t12.5 6h2q9 0 16 -7q4 -5 4 -14q0 -14 -10.5 -32.5t-22.5 -34.5
t-16 -22q-2 -2 -7.5 -8.5t-7.5 -10.5q-3 -7 -3.5 -16t-0.5 -13q-1 -8 -5 -31q-7 -31 -8 -56q0 -23 2.5 -40.5t11.5 -28.5q11 -12 22 -12q22 0 58 42q31 39 47 64q6 9 10.5 18t8.5 16q17 28 32.5 63.5t19.5 44.5q10 22 14 33q32 71 54 112q3 5 6.5 10t7.5 12q3 5 5.5 11.5
t5.5 11.5l10 14l22 34q4 6 8 11t7 9q25 31 53 54.5t55 28.5q4 1 10 1q28 0 34 -28q2 -16 -9 -35.5t-30 -33t-38 -13.5q-4 0 -14 2q6 2 16.5 3.5t16.5 3.5q20 7 35 32t10 42q-7 21 -25 20q-9 0 -23 -7t-23 -14q-44 -35 -91 -112q-2 -3 -5.5 -7.5t-6.5 -9.5q-4 -6 -6.5 -12.5
t-6.5 -12.5q-4 -7 -7.5 -12.5t-5.5 -9.5q-8 -15 -38 -77l-15 -33q-5 -11 -9 -20.5t-8 -17.5q-19 -46 -34 -71l-10 -15q-4 -7 -6.5 -13.5t-6.5 -13.5q-2 -2 -4.5 -5.5t-5.5 -7.5q-2 -3 -4.5 -8.5t-4.5 -8.5q-2 -4 -4.5 -6.5l-4.5 -4.5q-4 -9 -6 -11q-47 -69 -88 -83
q-9 -4 -23 -4q-25 0 -41 14.5zM357.5 199.5q13.5 21.5 13.5 37.5q0 10 -7 16q-1 1 -3.5 0t-4.5 -1q-10 -8 -15.5 -22.5t-8 -26t-3.5 -15.5q-1 -3 -2.5 -6t-2.5 -6t-0.5 -5.5t-0.5 -4.5q-1 -3 -3.5 -10t0.5 -10q24 32 37.5 53.5z" />
    <glyph glyph-name="X" unicode="X" 
d="M104 -90q-20 0 -30.5 8.5t-9.5 23.5q0 8 2 15.5t9 20.5q2 3 6.5 12.5t10.5 14.5q10 19 29.5 36.5t37.5 24.5q11 5 24 5q9 0 15 -4t6 -11q0 -9 -9 -23l-13 -15q-10 -10 -15 -10q5 7 13 16t12.5 16.5t4.5 15.5q0 11 -14 11q-16 0 -36 -12q-19 -11 -40.5 -37.5t-31.5 -49.5
q-8 -22 -5 -33q5 -5 6 -7q9 -13 28 -13q6 0 17.5 3t17.5 3q85 37 162 130l13 17l12 16q1 2 3.5 3.5t3.5 2.5q2 2 5 7t6 8q5 6 17 21t15 22q1 3 1 12v142q0 22 1 33q0 55 3 84q2 29 6 41q4 15 18 24t29 6q6 -2 9 -8.5t4 -8.5q-8 -80 -8 -173q0 -46 1 -68q3 2 6 6t5 5
q27 38 62 78q80 92 138 141q15 12 31 22q6 4 14.5 7.5t13.5 3.5q8 0 2 -10q-5 -3 -6.5 -1.5l-2.5 2.5q-30 -16 -54 -37.5t-66 -63.5q-42 -43 -103 -129l-6 -9l-11 -16q-19 -23 -21 -26q-5 -10 -5 -20l1 -16l1 -23q2 -34 2 -52l-3 -54q-1 -13 -1 -36q0 -32 -2 -51
q-10 -17 -19 -17q-12 0 -18 28q-6 10 -8.5 22t-3.5 24t-1 17q-2 22 -2 34q-1 9 -2.5 26.5t-3.5 29.5q-56 -73 -112 -123.5t-120 -73.5q-4 -1 -8.5 -3.5t-9.5 -3.5q-12 -3 -23 -3z" />
    <glyph glyph-name="Y" unicode="Y" 
d="M-3 -384q0 5 2 15q38 86 140 131q5 0 10 1.5t10 1.5q13 0 19 -8.5t3 -19.5q-2 -7 -14 -21q-2 -2 -6.5 -8t-9.5 -8q-1 0 -1 2t4.5 6t6.5 7q11 13 12 20q4 10 -3 16.5t-19 6.5q-6 0 -9 -1q-17 -3 -56 -30q-44 -37 -64 -68q-15 -23 -15 -41q0 -13 8 -21.5t23 -9.5q5 0 25 5
q38 9 77.5 41t73.5 74l26 37q37 53 73 123q27 52 57 127l23 52q22 47 50 116l27 62q-4 -3 -24 -26q-5 -5 -10.5 -11t-12.5 -13q-26 -30 -48 -49q-35 -34 -57.5 -52.5t-45.5 -27.5q-9 -4 -19 -4q-15 0 -22.5 11t-9.5 27q-1 4 -1 14q0 39 35 104q9 18 27 51q2 3 5 6.5t6 8.5
l7 14q25 38 48 66q13 17 28 31.5t27 20.5q6 3 15.5 6t17.5 3q12 0 12 -7q0 -9 -9.5 -18t-11.5 -12q-19 -19 -34.5 -41t-36.5 -56q-28 -42 -54 -97q-16 -34 -21 -43q-2 -5 -5.5 -10.5t-5.5 -10.5q-4 -4 -11 -19q-7 -14 -7 -30q0 -11 5 -12q11 -3 27 7.5t39 28.5
q49 39 108 108l21 22q25 25 32 36q4 6 5.5 11t3.5 8l9 19q25 56 48 90q3 4 5.5 8.5t4.5 7.5q7 9 19 15t22 3q2 -4 2 -8q0 -7 -3.5 -16.5t-8.5 -18.5q-2 -4 -10 -22l-20 -48l-10 -24q-10 -21 -28 -65q-27 -64 -34 -79q-8 -17 -13.5 -31t-10.5 -24q-26 -62 -42 -92
q-67 -125 -108 -186q-49 -75 -111 -131q-70 -66 -137 -84q-15 -3 -30 -3q-11 0 -20 3q-20 11 -20 33z" />
    <glyph glyph-name="Z" unicode="Z" 
d="M105 -59q-21 0 -21 16q0 13 13 27q17 19 46 38t50 22q5 1 12 1q13 0 19.5 -5t12.5 -16q38 26 93 76l25 22q52 46 110 113q-14 -2 -49 -14q-48 -16 -73 -16q5 3 13 4t12 2l74 23q6 2 14 4.5t24 12.5q69 88 95 127q3 5 7 12.5t8 11.5q1 2 3.5 4t4.5 6q2 2 2.5 4.5t1.5 4.5
q27 40 35 66q1 3 1 9q0 12 -10 18t-27 6q-27 0 -53 -12q-53 -22 -102.5 -59.5t-101.5 -89.5q-27 -25 -46 -47q-1 -1 -6 -6.5t-10 -5.5q5 13 18.5 26.5t16.5 17.5q38 39 102 89q43 33 77 54t74 34q23 9 46 9q8 0 12 -1q21 -4 31 -14t10 -28q0 -17 -9 -43q-2 -7 -6 -14
q-33 -73 -95 -153q-2 -3 -9.5 -11t-8.5 -12v-1q0 -4 6.5 -7.5t8.5 -5.5q8 -10 8 -22q0 -11 -6 -23q-3 -3 -5.5 -1.5l-2.5 1.5q1 3 3 4t2 3q1 5 1 13q0 23 -21 30q-10 -8 -20 -20.5t-14 -16.5q-23 -25 -35 -36q-104 -106 -194 -162q-3 -3 -15.5 -10.5t-13.5 -9.5q-2 -2 -2 -7
t2 -9q6 -15 24 -24q14 -7 34 -7q48 0 130 42q3 2 20.5 11.5t14.5 4.5q-15 -11 -49 -27q-15 -8 -75 -31q-21 -8 -44 -8q-31 0 -50.5 16.5t-17.5 32.5q-10 -4 -25 -12q-33 -15 -49 -21q-29 -8 -42 -9q-3 -1 -9 -1zM154.5 -27.5q17.5 8.5 22.5 11.5q30 17 50 34v3q0 5 -3.5 8
t-7.5 5l-6 3q0 1 1.5 1.5t2.5 1.5q-26 3 -55 -14.5t-48 -40.5l-9 -13q-3 -6 -3 -9q0 -8 10 -8q5 0 15 4q13 5 30.5 13.5z" />
    <glyph glyph-name="a" unicode="a" horiz-adv-x="385" 
d="M118 3q0 26 17 61.5t44 80.5q-14 -2 -37 -19q-30 -22 -64 -52q-45 -39 -66 -51q-22 -12 -45 -12q-13 0 -20 4q-17 6 -17 27q0 6 1 9l5 10q1 3 1 7t1 7q10 33 45 81q68 97 148 139q22 13 48 13q10 0 19 -5t12 -6q25 -17 34 -55l15.5 15.5t22.5 19t21 7.5q7 0 10 -2
q2 -1 2.5 -2.5t1.5 -2.5q-6 -17 -31 -55l-18 -27l-58 -96l-19 -32q-14 -22 -20 -33q-3 -6 -13.5 -23.5t-10.5 -27.5q0 -8 10 -8t29 13q32 17 79 56q41 31 99 90l15 16q24 27 30 35q2 3 6.5 8t8.5 7l1 -2q0 -4 -11 -15q-32 -37 -43 -48q-50 -49 -124 -114q-39 -33 -68 -45
q-22 -6 -36 -6q-6 0 -9 1q-16 6 -16 32zM33 48q7 5 37 30l37 29l18 13q28 22 40 28q4 2 11.5 5.5t9.5 5.5q6 6 12.5 17t10.5 16q4 6 11 16t10 17q3 6 3 12q0 9 -5.5 17t-6.5 10q-3 4 -7 12t-8 11q-6 5 -16.5 10t-18.5 4q-11 -1 -21 -10.5t-22 -24.5q-4 -6 -10.5 -12.5
t-12.5 -15.5q-12 -16 -19 -24q-25 -31 -32 -42l-9 -11q-3 -4 -4.5 -8.5t-4.5 -8.5l-14 -22q-24 -37 -38 -65q-3 -6 -3 -10q0 -5 2 -11t3 -10q16 0 47 22z" />
    <glyph glyph-name="b" unicode="b" horiz-adv-x="399" 
d="M-82 -90q0 48 26 128q28 76 70.5 159t88.5 154q33 51 55 81l6 7l29 40q22 28 55 62l19 20q34 36 58.5 57.5t51.5 32.5q6 0 13 5q14 2 18 2q36 0 36 -33q0 -28 -27 -79q-20 -35 -42 -65t-54 -68q-43 -53 -105 -112q-10 -8 -18 -18q-1 -1 -8 -7t-12 -4q2 4 6.5 7t5.5 4
q88 86 135 144l23 28q3 4 6.5 10t8.5 13l6 6q3 3 4 5.5t2 4.5l8 9q2 2 3 5.5t2 5.5l8 9q2 4 19 34q17 32 17 58q0 30 -24 30q-13 0 -24.5 -9.5t-29.5 -28.5q-32 -34 -77 -93q-4 -6 -9 -12l-10 -12t-12 -17t-12 -16q-62 -88 -111 -171q-30 -51 -50 -90q-3 -6 -7.5 -13
t-9.5 -16q-15 -27 -27 -54q-12 -26 -19 -39q-13 -24 -21 -46q-4 -9 -14 -35t-15 -47q-8 -34 -8 -50q0 -25 14 -35q8 -6 22 -6q7 0 10 1q40 11 77 44t78 82q2 4 5.5 9t5.5 10l-20 -3q-22 -5 -40 -5q-31 0 -55.5 14.5t-24.5 35.5t17 48t38 42q9 7 33 20q26 15 35 17q11 3 21 3
q18 0 30.5 -7.5t17.5 -18.5q5 -15 5 -23q0 -3 -2 -11q0 -3 -1.5 -5t-2.5 -5q-1 -2 -0.5 -4.5t-0.5 -4.5q-4 -19 -16.5 -45.5t-15.5 -32.5q27 9 70 36q46 31 63 46q52 40 91 78q3 3 12 11.5t18 12.5q0 -3 -5 -7.5t-7 -7.5q-82 -82 -178 -142q-29 -18 -54 -30
q-4 -1 -10.5 -3.5t-7.5 -4.5q-4 -4 -10 -13t-9 -14q-6 -6 -13.5 -16t-12.5 -15q-58 -68 -122 -95q-15 -6 -34 -6t-30 6q-25 13 -25 58zM171 12q14 18 25.5 45.5t14.5 46.5q2 16 2 25q0 7 -1 9q-11 32 -63 29v-1l-2 -1q-13 -2 -28.5 -11t-18.5 -11q-26 -16 -35 -27
q-16 -17 -26 -39.5t-7 -35.5q7 -18 29 -30t54 -12q8 0 24 2q12 1 32 11z" />
    <glyph glyph-name="c" unicode="c" horiz-adv-x="267" 
d="M-49 -16q-13 13 -11 44q0 30 23 81q9 19 28 49q3 4 4 7t3 6l8 8l27 37l23 25q40 46 78 77.5t78 40.5q12 3 26 3q12 0 20 -3q7 -3 10.5 -10.5t3.5 -16.5t-2 -14q-9 -19 -21 -37q-5 -7 -12 -16.5t-13 -16.5q-12 -15 -18 -15q1 4 6.5 9.5t7.5 8.5q17 21 30.5 44t13.5 38
q0 10 -5 14q-8 5 -16 5q-11 0 -22.5 -8t-22 -18t-15.5 -14q-38 -35 -74 -77q-26 -30 -42 -51q-21 -31 -29 -46q-4 -8 -21.5 -37.5t-28 -55t-10.5 -41.5q0 -5 2 -11q8 -13 26 -13q11 0 22 4q42 13 87 51q32 27 80 71q53 50 97 85q17 15 14 8q-10 -8 -162 -146
q-47 -43 -76 -57q-26 -13 -43.5 -19.5t-33.5 -6.5q-26 0 -40 14zM306 199q2 1 0 -1v1z" />
    <glyph glyph-name="d" unicode="d" horiz-adv-x="405" 
d="M84 -36l1 18q1 44 30 112q-6 -3 -14 -10t-13 -11q-13 -10 -59 -35q-18 -9 -32 -9q-18 0 -27 14t-8 35q4 32 21 64l9 13q3 4 4.5 8t4.5 8q-2 -3 16 22q27 34 47.5 57t43.5 39q33 23 57 23q17 0 24 -9t10 -21t6 -19q5 7 12 20l12 20q9 12 10 13q2 3 4 7t4 7q21 31 23 35
q2 3 3.5 6.5t4.5 7.5q7 11 23 33q3 4 4.5 7.5t3.5 6.5t4 5.5t3 4.5q2 3 3.5 6t3.5 6q58 89 108 156q24 33 56 72q46 56 80 76q19 11 42 18q4 1 11 1l22 -1q2 -4 8 -5q5 -8 5 -18q0 -6 -1 -9q-2 -15 -10 -33t-23 -49l-13 -26l-17 -25q-7 -13 -17 -26q-65 -96 -148 -177
q-44 -42 -102 -94q-20 -18 -36 -23q3 3 18 16q27 21 54 45l30 29q26 26 40 38q26 24 51.5 55.5t30.5 37.5q20 24 31 39q10 14 14 21l4.5 4.5t3.5 4.5q2 3 3.5 6t3.5 6q26 38 46 79t20 67q0 11 -5 19q-32 -20 -61 -49.5t-61 -70.5q-16 -19 -56 -72q-21 -29 -38 -56l-29 -42
l-7 -9l-37 -58l-16 -26q-11 -15 -10 -13q-7 -11 -13 -21.5t-11 -18.5q-3 -5 -6 -9.5t-6 -9.5q-63 -106 -94 -172l-18 -38q-24 -49 -37.5 -80t-20.5 -58q-2 -10 -2 -16q0 -13 6.5 -20t21.5 -6q13 1 45 33t98 104q103 112 138 139q18 18 21 14l1 -2l-1.5 -1.5l-4.5 -4.5
q-11 -9 -23 -21t-19 -18l-28 -27q-12 -11 -47 -54q-66 -79 -113.5 -126.5t-76.5 -47.5q-6 0 -9 1q-35 13 -35 68zM47 54q34 19 56 38q16 13 17 14q4 6 9.5 19t8.5 19q12 25 38 71q4 7 11 18t10 17v3q0 10 -5 22q-5 17 -8 20q-5 5 -15 5q-12 0 -24 -9q-18 -14 -47 -52
q-20 -25 -42 -62q-2 -3 -4 -7.5t-4 -7.5q-2 -2 -4.5 -5.5t-5.5 -7.5q-28 -43 -38 -81q-3 -7 -3 -16q0 -10 7 -14q15 -1 43 16z" />
    <glyph glyph-name="e" unicode="e" horiz-adv-x="257" 
d="M-80 0.5q-7 12.5 -7 29.5q0 10 3 22q3 15 15 36t23 34q64 92 142 140q27 18 48.5 27t46.5 9q22 0 22 -16q0 -11 -11 -28q-29 -41 -83 -84q-23 -19 -59 -41q-2 -1 -9 -5.5t-11 -3.5q-1 4 7 8.5t9 5.5q53 31 99 77l15.5 15.5t19.5 23.5q11 14 11 26q0 9 -11 9
q-10 -1 -21 -7q-31 -16 -63.5 -48t-70.5 -78l-20 -25q-24 -30 -35 -46q-33 -52 -33 -75q0 -14 15 -17h3q37 0 105 46q30 19 77 55q-5 -4 50 38l25 19l56 43q2 1 7.5 6.5t11.5 4.5q-2 -7 -9.5 -11t-9.5 -6q-62 -52 -133 -104q-54 -40 -79 -56q-27 -16 -48 -26.5t-38 -13.5
q-12 -2 -19 -2q-10 0 -20 2q-14 4 -21 16.5z" />
    <glyph glyph-name="f" unicode="f" horiz-adv-x="330" 
d="M-137 -259q-8 22 -8 48q0 10 1 15q2 38 13 67q10 34 26 70l30 74q10 22 14 33l15 27l16 31l14 32l6 9q2 8 4 11q7 9 7 10l5 10q5 13 29 56q40 78 87.5 155.5t113.5 180.5q47 69 79 106.5t75 59.5q26 12 45 13q16 -3 16 -22q0 -14 -6.5 -31.5t-18.5 -45.5
q-51 -112 -147 -244q-38 -52 -117 -137l-16 -18q-13 -15 -22.5 -24t-21.5 -14q7 10 26 27q108 109 171 211q46 74 82 141q4 7 16 29.5t20 43.5q14 34 14 52q0 9 -5 17q-14 -8 -24 -18.5t-26 -31.5l-42 -54q-107 -156 -173 -269q-9 -17 -16.5 -30t-13.5 -23l-17 -29
q-3 -4 -5.5 -10.5t-5.5 -9.5l-20 -40q-8 -14 -14 -26l-10 -19q-34 -64 -56 -110.5t-39 -96.5q-7 -16 -24 -64l-14 -34q-16 -36 -21 -73q-2 -5 -1.5 -10.5t0.5 -7.5q-1 -6 -2.5 -17t-1.5 -18q0 -23 16 -23q5 0 13 3q20 7 44.5 28.5t42.5 43.5q19 21 34 43q57 80 81 171
l-22 -14q-20 -13 -34 -20.5t-29 -7.5q-12 0 -19 5t-7 14q0 11 10 27q19 31 46 49q13 8 26 11q2 0 4.5 -1.5t4.5 -1.5t9 -1t12 -6t7.5 -13.5t3.5 -14.5t1 -8q5 3 85 56.5t114 93.5q19 23 32 30q0 -5 -5.5 -10t-7.5 -8q-2 -2 -14 -17q-31 -32 -60.5 -54.5t-78.5 -55.5
q-56 -37 -68 -46q-3 -23 -12 -44q-7 -9 -8 -13t-2 -10.5t-4 -11.5l-7 -11l-5 -11q-1 -7 -8 -15q-20 -40 -60 -94q-25 -31 -48 -54.5t-46 -34.5q-15 -7 -35 -7q-12 0 -21 3q-14 6 -22 28zM70.5 -21q11.5 5 16.5 6q10 9 24 17q2 1 11 7t11 11q2 6 2 8q0 12 -11 23q-8 8 -25 8
q-14 0 -24 -6q-9 -6 -20.5 -21t-16.5 -27q-5 -10 -5 -16q0 -8 5 -12t14 -3q7 0 18.5 5z" />
    <glyph glyph-name="g" unicode="g" horiz-adv-x="397" 
d="M-248 -500q0 9 1 14q1 3 2.5 5t1.5 5q1 3 0.5 5.5t0.5 4.5q1 5 3.5 9.5t3.5 8.5q2 4 2.5 7t0.5 5q8 23 25 54q8 10 8 12q4 5 5.5 9t3.5 7t9 10l5 10q13 18 33.5 39t26.5 28q86 91 159 148l16 12t16 15q8 10 16 28t12 26q46 86 82 168q-12 -9 -32 -31l-14 -15
q-41 -42 -92 -87q-24 -22 -43 -33t-41 -11q-23 0 -30.5 15.5t-6.5 39.5q1 4 0.5 8.5t0.5 8.5q0 3 1 5.5t2 4.5q1 1 0.5 3t0.5 4q2 8 7 21t7 19q7 15 23 40q7 17 9 20l33 46q61 86 130 134q54 38 98 38q24 0 36 -9.5t18 -26.5q1 -2 2.5 -6.5t4.5 -5.5h2q2 0 7.5 1t8.5 0
q16 0 16 -12q0 -9 -9.5 -26t-12.5 -23q-35 -65 -73 -139.5t-62 -130.5q7 1 22 12q36 16 105.5 78.5t113.5 109.5q3 3 8 9t11 9q1 -1 1 -3q0 -5 -5.5 -11t-7.5 -8q-33 -37 -115.5 -107.5t-124.5 -98.5q-18 -12 -22 -16q-6 -6 -17 -32l-18 -33q-10 -18 -28 -54
q-28 -54 -43 -78q-4 -6 -6.5 -12.5t-6.5 -12.5q-8 -10 -8 -11q-3 -5 -5.5 -10l-4.5 -9t-5.5 -7.5t-5.5 -7.5q-5 -8 -10 -17.5t-13 -21.5q-1 -2 -9 -12q-33 -50 -71 -92.5t-74 -61.5q-11 -6 -25.5 -10.5t-26.5 -4.5q-13 0 -19 5q-14 7 -14 26zM-29 -37q6 0 14.5 2.5t12.5 5.5
q10 5 25.5 16t22.5 18q5 5 9 11l16 14q17 15 20 18l27 27l28 28l27 28q22 20 28 28q7 10 17 34l9 18q9 18 37 62q3 4 4.5 7.5t3.5 6.5q3 3 9.5 10t7.5 10v3q0 8 -10 20q-11 13 -21 16q-6 2 -12 2l-13 -1q-17 -1 -31 -10.5t-30 -26.5q-22 -20 -43 -47q-48 -58 -70 -91
q1 2 -10 -13q-2 -3 -3 -6t-3 -6q-9 -11 -10 -14q-20 -34 -28 -51l-11 -26q-3 -10 -8 -22q-3 -8 -13.5 -29t-10.5 -32q0 -9 8 -10h1zM-180 -509q21 15 59 63q3 5 10.5 14.5t11.5 17.5l15 21q2 3 4.5 8.5t5.5 9.5l11 17q6 12 11.5 21t9.5 15q8 16 13 24l38 76q12 24 19 36
q21 39 30 64h-1q-60 -45 -126 -111q-16 -19 -41 -42q-52 -52 -73 -83q-4 -5 -6 -14q-11 -13 -11 -14q-6 -9 -11.5 -21.5t-7.5 -17.5q-13 -26 -17 -38q-1 -4 -1.5 -10.5t-1.5 -9.5q-2 -14 -2 -17q0 -6 1 -9q1 -1 6 -6.5t14 -7.5q16 -1 40 14z" />
    <glyph glyph-name="h" unicode="h" horiz-adv-x="379" 
d="M-107 -118q0 5 1.5 12.5t2.5 11.5q3 13 6.5 23.5t5.5 18.5q15 48 24 67q4 14 7 21l19 44l28 63q2 5 7 13.5t8 15.5q1 3 2 7t3 9q3 7 6 13l6 12q2 3 3.5 9t4.5 11l12 23l5 14q16 37 34 70q5 14 10 26q23 48 50 99.5t54 95.5l12 18l12 18l24 34q3 6 9.5 14t10.5 14
q54 73 103 117q35 32 73.5 55t71.5 23q23 0 32 -8.5t9 -24.5q0 -7 -2 -21q-4 -21 -16 -46t-34 -65q-27 -47 -78 -110q-3 -4 -8 -11.5t-10 -10.5q-1 -2 -6 -11l-22 -24l-14 -16q-53 -61 -144 -145q-40 -38 -73 -64l-20 -14q-17 -12 -19 -14q-3 -3 -6 -12.5t-6 -15.5l-18 -36
l-24 -49l-44 -94q45 66 84.5 112.5t83.5 73.5q32 22 54 22q12 0 19 -6q12 -9 12 -30q0 -18 -10 -48q-9 -24 -38 -71q-3 -5 -8.5 -12t-8.5 -11l-10 -20q-31 -40 -39 -53q-30 -40 -37 -52q-12 -17 -17.5 -31t-0.5 -19q15 3 30 15t18 14q11 9 24.5 22t20.5 20l46 46l44 43
l122 113q1 0 12 8t12 2v-1q0 -1 -4 -3t-6 -4l-19 -17q-30 -27 -69.5 -63.5t-47.5 -44.5l-34 -34q-67 -67 -104 -97q-16 -13 -28 -20t-22 -7q-7 0 -12 5q-3 3 -3 12q0 13 4 31q4 24 8 33q7 15 29 50q7 15 29 45q5 10 15 27q4 6 9.5 13.5t7.5 12.5q8 13 24 43q4 7 12.5 20
t11.5 22q3 5 4 11.5t2 10.5q2 6 2 9q0 7 -4 8h-3q-3 0 -6.5 -1.5t-7.5 -2.5q-45 -22 -85 -62t-83 -100q-4 -6 -7.5 -12.5t-7.5 -12.5q-2 -2 -5 -5.5t-4 -6.5q-14 -18 -28 -44t-26 -52q-5 -8 -7.5 -14t-4.5 -10q-6 -14 -11 -23q-3 -6 -9 -20t-13 -20.5t-16 -4.5q-6 1 -6 11z
M134 297q17 13 71 63l36 34q38 36 56 55q40 43 90 101q61 74 84 110q41 67 57 110q13 38 11 54q-2 10 -10.5 15t-20.5 5q-15 0 -32 -9q-46 -27 -106 -101q-8 -11 -14.5 -21t-11.5 -17q-7 -7 -13 -16l-25 -38q-57 -86 -79 -121q-23 -37 -64 -122q-31 -63 -53 -118q13 6 24 16
z" />
    <glyph glyph-name="i" unicode="i" horiz-adv-x="245" 
d="M142 377.5q13 8.5 23 9.5h3q9 0 9 -6q0 -4 -5 -12q-4 -6 -15.5 -11t-19.5 -5t-8 6q0 10 13 18.5zM-84 -62.5q-3 13.5 -3 34.5q1 27 14.5 61.5t39.5 82.5q23 42 45 78q5 9 26 39q5 8 10 16.5t11 17.5q25 34 43 44q11 7 24 7q8 0 14 -3q1 -9 -4 -18.5t-13 -20t-12 -16.5
q-2 -3 -3.5 -6.5t-3.5 -6.5q-1 -2 -9 -10q-28 -43 -63 -108l-16 -30q-24 -44 -38.5 -73.5t-24.5 -58.5q-6 -16 -6 -28t6 -13h2q7 0 17 5q26 12 49.5 30.5t60.5 52.5l69 62l39 38q52 50 79 74q1 1 6 6.5t10 5.5q-2 -6 -16 -18l-37 -35l-21 -20q-99 -95 -154 -144
q-53 -47 -83 -60q-16 -8 -29 -8q-9 0 -16 4q-10 5 -13 18.5z" />
    <glyph glyph-name="j" unicode="j" horiz-adv-x="202" 
d="M102 377.5q13 8.5 23 9.5h3q9 0 9 -6q0 -4 -5 -12q-4 -6 -15.5 -11t-19.5 -5t-8 6q0 10 13 18.5zM-403 -471q-15 0 -24 6q-8 6 -10 25q-2 20 7.5 48t27.5 56q7 12 37 52q80 101 175 174q33 25 72 52q19 11 24 17q5 7 10.5 20.5t7.5 18.5q9 20 40 93q18 45 40 92
q3 7 14.5 31t23.5 41q22 30 38 32h3q6 0 11 -2t5 -6q1 -7 -11 -35l-99 -235q7 0 18 9q61 37 114 76q54 41 104 95q2 1 7 6.5t9 4.5l0.5 -2t-1.5 -5l-8 -6l-14 -15q-38 -38 -86 -76q-10 -8 -34 -24l-28 -20q-49 -35 -87 -54q-77 -170 -140 -269l-8 -10l-7 -14q-2 -2 -5 -5.5
t-6 -8.5q-71 -109 -165 -149q-3 -1 -13.5 -5.5t-20.5 -5.5q-14 -2 -21 -2zM-396 -466q15 0 39 13q36 20 64 54q8 9 24 33l9 10q40 59 73.5 125t85.5 177h-2q-39 -25 -72 -51q-79 -57 -181 -180l-13 -17l-6 -8l-9 -15q-2 -3 -4 -5.5t-4 -5.5q-18 -34 -24 -53l-2 -10
q-5 -22 -5 -30q0 -14 4 -23t14 -13q3 -1 9 -1z" />
    <glyph glyph-name="k" unicode="k" horiz-adv-x="348" 
d="M-123 -134q-5 0 -9 1.5t-5 3.5q-3 6 3 23.5t18 46.5q22 47 39 80q29 62 136 280l20 40q2 5 17 32l24 45q12 26 20 38q5 9 20 38q2 2 5 6t3 5q8 11 9 17q8 10 11 15l24 39q1 2 3.5 5t4.5 6t3.5 6.5t3.5 6.5l8 10q72 104 124 144q35 27 65 27q11 0 16 -2q6 -1 10.5 -6
t6.5 -10q1 -2 1 -8q0 -14 -8 -40q0 -4 -1 -6q-33 -82 -105 -174q-28 -35 -72 -87q-43 -49 -74 -81t-64 -58q-3 -2 -10.5 -8t-9.5 -9q-8 -11 -14 -27t-10 -25q6 4 24 25q43 48 75 63q29 13 51 13q10 0 14 -2q13 -4 13 -20q0 -12 -7 -29t-18 -33q-25 -35 -62.5 -62.5
t-72.5 -34.5q-5 -1 -15 -1q-15 0 -23 4q-3 1 -6.5 4t-7.5 3q-4 -4 -4 -7t2.5 -5t3.5 -3q13 -12 13 -43q1 -32 -3 -71q-6 -36 -18 -82q-4 -16 -4 -23q0 -5 2 -13q4 -25 21 -25q7 0 14 3q37 11 86 56q29 26 55 55.5t64 75.5l26 31l54 63q2 2 7 9t10 9q4 -1 4 -4q0 -4 -5 -9
t-6 -7l-22 -27q-17 -19 -32 -38t-49 -57q-18 -20 -26 -30q-39 -44 -64.5 -69.5t-55.5 -43.5q-34 -20 -47 -24q-4 -1 -16 -1q-8 0 -11 1q-7 5 -12 12q-8 13 -8 30q0 24 14 78q7 29 8 37q2 11 2.5 25t0.5 21q-2 8 -3.5 18.5t-4 17.5t-9.5 11q-21 -35 -38 -74q-18 -39 -36 -71
l-37 -70q-30 -51 -45 -58q-6 -2 -9 -2zM141 325q7 7 11 10q88 82 156 169q8 11 26 33q40 51 56 75q21 33 35 67t14 57q0 18 -10 27q-10 -6 -23 -19.5t-18 -18.5q-4 -4 -34 -37q-21 -25 -62 -84q-34 -49 -65 -102q-35 -60 -75 -137q-6 -10 -16 -30q-2 -4 -6 -10.5t-2 -9.5
q6 3 13 10zM172 202q30 23 51 53l15 23q14 28 14 39q0 15 -19 15q-25 0 -50.5 -16.5t-47.5 -41.5q-34 -38 -46 -53q-2 -3 -13.5 -18t-12.5 -21q-2 -8 7.5 -12t23.5 -4q13 0 18 2q30 11 60 34z" />
    <glyph glyph-name="l" unicode="l" horiz-adv-x="287" 
d="M-50 -36q-4 8 -4 22q0 12 6 44l4 19q1 5 1.5 9.5t2.5 8.5q1 4 3 8t3 8l2 8l2 8q4 10 7.5 19t6.5 16q11 31 33 72l19 34q3 7 7.5 16.5t8.5 15.5q2 4 6 9.5t6 9.5l9 20l15 22q17 31 20 36l21 34q22 36 38 60q43 64 82.5 111.5t83.5 81.5q56 43 101 48h7q21 0 27 -11
q4 -6 4 -9q1 -10 -10 -30t-23 -37q-50 -76 -133 -169q-90 -100 -200 -186q-57 -105 -111 -227q-21 -46 -21 -63q0 -13 10 -19q2 -2 2.5 0.5t3.5 2.5q10 -3 23.5 3t33.5 18q33 20 62 43t78 66q40 36 61 53q10 9 30 25l30 24q3 2 9.5 7.5t11.5 4.5q-1 -7 -16 -17l-57 -46
q-23 -19 -69 -59l-81 -68q-28 -23 -49.5 -36.5t-46.5 -22.5q-16 -8 -30 -8q-21 0 -30 21zM150 307q16 13 17 14l30 29q77 72 103 101q81 93 120 151q2 4 14 21.5t20 33.5t8 25q0 8 -7 11q-6 2 -10 2q-17 0 -34 -13q-25 -15 -60 -54q-36 -42 -53 -66q-60 -79 -112 -163
q-47 -76 -66 -115q13 6 30 23z" />
    <glyph glyph-name="m" unicode="m" 
d="M335 -50q-10 0 -16 7q-7 9 -10.5 18t-2.5 21q0 7 3 16q2 15 3 16q5 23 35 67q17 25 64 87q5 7 11.5 15.5t14.5 19.5q11 17 22 31l16 21q3 4 4 8t3 7q13 20 20.5 34.5t4.5 22.5q-14 -1 -27 -8t-30 -19q-36 -24 -98 -82q-37 -37 -45 -48q-5 -6 -17 -28q-12 -21 -20 -32
t-17 -15q-6 -3 -14 -3q-13 0 -19 6q-2 5 2 16t9 21.5t9 19.5q4 8 12.5 24.5t11.5 27.5q2 5 2 8.5t1 5.5q2 5 5.5 14.5t3.5 16.5q0 2 -2 8q-37 -11 -68 -33t-74 -61q-31 -28 -91 -100q-23 -25 -29 -34q-6 -10 -13 -27q-8 -20 -14 -29q-6 -11 -17.5 -22t-20.5 -11
q-13 -1 -13 20l1 11q2 8 10 31l7 20q14 44 29 80q4 9 8 25l14 31l11 31l11 28l13 33q9 8 26 8q9 0 17 -3t9 -8v-2q0 -1 -0.5 -4t1.5 -4q-15 -46 -38 -100l-11 -32q-3 -9 -9.5 -23.5t-7.5 -24.5q87 110 174 171q15 10 34 20l23 11.5t30 8.5q9 0 16 -4q8 -4 13.5 -21t3.5 -30
q-1 -4 -4 -11.5t-2 -12.5l22 21l21 20q58 54 90 75q38 24 62 32q3 1 8 1q12 0 19 -9t7 -18l1 -10q0 -11 -3 -19q-4 -19 -20 -43l-18 -27q-23 -36 -52.5 -75t-35.5 -46l-23 -30l-36 -48q-8 -12 -13 -21q-7 -13 -11.5 -27t0.5 -17q8 -4 20 1.5t27 15.5q36 22 89 73q1 1 29 26
q24 22 71 63q31 25 51 43l8.5 8.5t12.5 5.5v-1q0 -5 -6 -10t-8 -7q-28 -27 -62 -54q-36 -30 -57 -50l-30 -28l-44 -41q-52 -43 -80 -56q-9 -4 -17 -4z" />
    <glyph glyph-name="n" unicode="n" horiz-adv-x="433" 
d="M166 -70q-19 0 -30 12t-11 28q0 8 1 11q4 18 12.5 36t17.5 34.5t12 22.5l23 36q2 3 19 28l50 77l17 27q23 33 39 66q11 22 13 30l1 6q0 7 -3.5 12t-7.5 5q-12 0 -35 -15q-32 -18 -71 -57l-42 -42q-61 -59 -89 -93q-26 -30 -39 -47l-8 -9q-2 -2 -3.5 -5t-3.5 -5
q-2 -3 -4 -5t-3 -4q-5 -8 -13 -24q-9 -20 -17 -30q-22 -27 -39 -27q-6 0 -10 4q-3 3 -3 8q0 10 6 28l2 10q2 9 8.5 22.5t9.5 20.5q4 6 10 20q39 81 58 125q3 7 10.5 28.5t17.5 28.5q8 7 23 7q9 0 16 -3t8 -7q2 -6 -3.5 -20t-11.5 -28l-23 -50q-24 -52 -29 -66q4 2 8 6.5
t6 6.5q48 52 100 103q16 15 31 31q53 53 88 76q35 24 57 24q10 0 17 -4q17 -10 17 -34q0 -57 -95 -193l-34 -50l-15 -26q-6 -9 -26 -42q-16 -25 -25.5 -42.5t-10.5 -29.5q0 -4 3 -8t9 -4q13 0 29.5 13t18.5 14q67 50 128 110l34 32q40 39 70 74q1 1 7 9t15 8q-2 -7 -8.5 -14
t-8.5 -9q-12 -16 -58 -66q-17 -18 -22 -21q-2 -2 -6 -5t-14 -13q-42 -40 -82 -76q-50 -43 -89 -63q-10 -3 -19 -3z" />
    <glyph glyph-name="o" unicode="o" horiz-adv-x="372" 
d="M-88 -61q-17 19 -17 47q0 17 8 39q6 18 19 43q4 9 23 39q29 48 63.5 88.5t69.5 67.5q14 8 24 11.5t21 2.5q5 6 13 18q18 24 26 31q29 39 73 53q34 0 45 -6q23 -13 23 -47q0 -45 -37 -119q-17 -31 -20 -36q-38 -57 -67 -90q51 9 113 39t98 64q2 2 8.5 9.5t13.5 6.5v-1
q0 -5 -6.5 -11t-8.5 -8q-38 -38 -104.5 -70t-122.5 -40q-32 -36 -95 -90q-19 -16 -32.5 -26t-30.5 -18t-29 -12t-25 -4q-29 0 -46 19zM252.5 199q40.5 76 40.5 124q0 24 -11 35q-12 14 -34 14q-20 0 -34 -11.5t-35 -35.5q-24 -28 -47 -72.5t-31 -77.5q-4 -20 -4 -28
q0 -34 29 -57q10 -7 18.5 -9.5t23.5 -1.5q44 44 84.5 120zM58 -21q54 40 103 91q-25 1 -42 9.5t-34 30.5q-13 20 -13 42q0 32 23 78q1 1 0.5 1.5l-0.5 0.5l-2 -2q-60 -70 -104 -145q-3 -6 -6 -10t-5 -7q-40 -73 -40 -105q0 -20 14 -28q7 -5 18 -5q7 0 14 3q20 6 74 46z" />
    <glyph glyph-name="p" unicode="p" horiz-adv-x="441" 
d="M-162.5 -249.5q-0.5 3.5 -0.5 5.5q5 13 10.5 25.5t10.5 25.5l21 49l8 25q2 5 6.5 14t5.5 15q1 3 2 8.5t3 8.5q3 8 6.5 15.5t6.5 14.5l20 58l11 25q11 24 12 28q2 6 4 16q3 8 11 24q2 5 5.5 11.5t6.5 14.5q9 29 14 39q12 26 17 39q23 57 38 79q7 9 16.5 14.5t19.5 5.5
q9 0 17 -6q1 -15 -7.5 -38t-25.5 -59q-4 -9 -11.5 -26t-11.5 -29q9 6 15.5 16t9.5 14q35 43 80 89l16 17q16 17 33.5 34t35.5 28t30.5 17t26.5 7h4q13 0 23 -4q12 -5 17 -17q6 -12 6 -30q0 -57 -63 -185q15 1 33 -2q15 -3 31 -3q40 0 79 29q5 6 13 12.5t12 9.5q3 2 11 8.5
t14 6.5q2 -2 -1 -4.5l-3 -2.5q-45 -40 -75 -55t-56 -15q-11 0 -35 4q-9 2 -29 4q-30 -53 -71.5 -100t-84.5 -75q-38 -26 -66 -33q-10 -3 -21 -3q-17 0 -23 8q-3 4 -3 11q0 14 11 38q20 43 76 91q48 43 96 50q13 2 33 12q18 27 37 69q4 9 20.5 43.5t23.5 59.5q5 20 5 36
q0 10 -3 16q-4 9 -16 9q-13 0 -30 -8.5t-31 -18.5q-17 -13 -52 -48q-64 -64 -118 -137q-8 -10 -11 -15q-11 -13 -11 -14q-10 -16 -18 -41q-4 -14 -7 -20q-14 -31 -32 -82q-38 -100 -67 -156q-4 -8 -9 -16.5t-9 -16.5q-4 -7 -9 -17.5t-9 -16.5q-7 -11 -16.5 -17.5t-17.5 -6.5
q-11 0 -12 12q2 3 1.5 6.5zM82 -42q85 62 138 156q-17 0 -34 -4q-31 -8 -65 -34.5t-59 -58.5q-10 -12 -12 -16q-9 -13 -15.5 -28t-6.5 -26q0 -13 11 -13q10 0 43 24z" />
    <glyph glyph-name="q" unicode="q" horiz-adv-x="438" 
d="M45.5 -254.5q-10.5 8.5 -16.5 25.5q-7 17 -7 39q0 21 9 66q2 4 9 34q4 18 7 27q12 39 42 107q10 22 14 33q-8 -6 -16.5 -16t-12.5 -15q-23 -23 -30 -28q-17 -9 -29 -14.5t-25 -5.5q-7 0 -11 1q-13 5 -20.5 20.5t-7.5 34.5q0 10 1 15q9 45 57 121l8 10q3 5 6 10.5t8 12.5
q31 45 71 79q20 19 36 31.5t34 19.5q30 13 51 13q14 0 24 -7q20 -23 16 -78h1q2 0 10.5 3t13.5 4h3q8 0 13.5 -3t3.5 -9q-1 -6 -16 -19.5t-20 -18.5q-31 -34 -68 -88q-7 -11 -15.5 -27t-13.5 -25q-14 -24 -27.5 -50.5t-22.5 -50.5q-7 -17 -23 -60q0 -8 -3 -15
q-30 -84 -37 -126q-3 -21 -3 -26q0 -23 10 -24q9 -1 21 7.5t14 9.5q9 7 30 28q6 9 10.5 18t9.5 16q4 6 7.5 10t5.5 8q12 21 25 66q12 41 15 61l6 39q9 52 13 68q6 26 14.5 40t25.5 18q12 3 49 6q51 4 85.5 10t47.5 17t20 21t8 11q6 -4 -3.5 -16t-10.5 -14q-15 -19 -59.5 -27
t-131.5 -16q-20 -2 -29.5 -31.5t-16.5 -70.5q-1 -3 -6 -37q-2 -18 -4 -27q-18 -86 -56 -146q-34 -58 -81 -76q-22 -2 -32.5 6.5zM17.5 15.5q8.5 3.5 14.5 7.5q14 8 26 20t23.5 26.5t17.5 21.5t18 20t17 21q6 9 11 17.5t10 16.5q9 14 23 31q22 30 50 55q4 3 15.5 11t13.5 11
q2 10 2 24q-4 40 -17 54q-3 3 -10 4.5t-12 1.5q-19 -4 -32 -14q-28 -20 -82 -97q-8 -12 -24 -33q-16 -25 -35 -64q-3 -4 -6.5 -8.5t-7.5 -10.5q-4 -8 -14 -32l-6 -20q-13 -37 -14 -49q0 -17 6 -18q4 0 12.5 3.5z" />
    <glyph glyph-name="r" unicode="r" horiz-adv-x="236" 
d="M-42 -97q-29 0 -38 29q-3 10 -3 21q0 14 3 32q10 44 20.5 67.5t43.5 85.5q22 41 39.5 68.5t39.5 49.5l28 21q-9 -2 -23 -2q-18 0 -33 7q-5 2 -13.5 6t-13.5 8q-16 16 -16 48q0 6 2 22q-12 -2 -18 -2q-17 0 -16 11l3 1q2 0 4.5 -2t3.5 -3h4q10 0 21 3q15 47 44 85t65 56
q18 8 30 8q22 0 19 -18q-2 -12 -19 -37q-19 -27 -48.5 -51t-59.5 -38q-11 -26 -11 -46q0 -30 29 -44q9 -5 22 -5q6 0 20 2q5 1 13 4t13 4h2q7 0 13 -3.5t5 -7.5q0 -2 -4 -8.5t-6 -9.5q-7 -11 -18.5 -25.5t-16.5 -20.5q-18 -23 -30.5 -44t-29.5 -56q-5 -9 -9 -17t-8 -15
q-31 -57 -38 -73q-9 -19 -15.5 -41t-6.5 -37q0 -25 18 -25q20 0 52 16q43 23 89 69q36 27 65 64.5t64 91.5q16 24 16 25q7 9 21 23l-8 -14q-31 -42 -57 -84q-23 -36 -41.5 -58t-62.5 -59q-74 -70 -137 -81q-4 -1 -12 -1zM73.5 414q21.5 16 36.5 32q18 21 21 26q9 16 9 27
q0 9 -8 8q-16 -12 -31 -27q-31 -31 -59 -74q-7 -12 -7 -16q17 8 38.5 24z" />
    <glyph glyph-name="s" unicode="s" horiz-adv-x="222" 
d="M-154.5 -167q-7.5 7 -8.5 18q0 19 11 36q1 1 2 2.5t2 3.5l13 19q39 47 111 81q2 8 4 16.5t4 17.5q1 6 2.5 16t4.5 23q3 21 3 42q0 12 2 36l7 42q1 6 4 23t12 36q20 50 52 71q8 7 21 13t24 8l6 1q6 0 12 -2t9 -5q12 -9 12 -32q0 -21 -10 -41q-5 -13 -15.5 -27t-12.5 -16
q-7 -10 -12 -10q1 7 14 24q11 13 12 16q16 27 16 54q0 28 -17 28q-13 0 -27 -12.5t-22 -27.5q-9 -15 -16 -50l-4 -14q-6 -24 -9.5 -52.5t-4.5 -37.5l-5 -40q-1 -16 -7 -33q0 1 -7 -38q26 12 55 34l32 23q47 33 82 64q1 1 19 16q22 18 32 29q2 2 5.5 7t8.5 5q0 -4 -11 -15
q-17 -17 -41 -37l-37 -32q-27 -25 -63 -49t-85 -54q-10 -30 -39 -90q-17 -36 -52.5 -66.5t-67.5 -30.5q-13 0 -20.5 7zM-56 -90q17 33 27 72h-1q-17 -8 -55 -37q-6 -5 -23 -18t-28 -26.5t-17 -29.5q-2 -5 -2 -14q0 -11 5 -17.5t14 -6.5t22 8q31 18 58 69z" />
    <glyph glyph-name="t" unicode="t" horiz-adv-x="249" 
d="M-44 -70q-11 0 -19 5.5t-10 12.5q-3 6 -3 21l1 19l3 23q4 28 41 102q18 32 26 48l18 34l15 27q2 4 6 10t7 10l21 37q23 38 37.5 63.5t23.5 41.5q15 24 33 55.5t30 49.5q-9 0 -22.5 -6t-19.5 -9q-9 -4 -22 -8.5t-20 -6.5q-9 -3 -36.5 -13.5t-50.5 -15.5q-3 -1 -10 -1
q-4 -1 -18 -3q-3 -1 -6 -2.5t-6 -1.5q-3 -1 -5.5 -0.5t-4.5 0.5q-6 -1 -16 -3t-15 -2q-9 0 -12 4q2 1 4 0.5t4 -0.5q-4 2 -5 2q-2 0 -5.5 -1t-5.5 0q-2 0 -2.5 1t-1.5 2q-2 1 -3.5 0.5t-2.5 0.5q-10 7 -10 20q0 15 12 31q3 4 14 18q12 14 27 26t28 15q10 2 15 2
q14 0 22.5 -5.5t4.5 -16.5q-2 -6 -7 -13t-10 -7q0 3 3 7.5t5 8.5t2 7q0 5 -4 9t-11 4q-5 0 -15 -4t-15 -4q-19 -9 -38.5 -35.5t-19.5 -43.5q0 -10 7 -14q11 -6 26 -6q23 0 66 13q47 12 55 15q12 3 54 18l23 9q14 8 28 12q5 2 15 5t15.5 8.5t12.5 17.5q5 11 14 21l15 28
l15 26q2 4 4.5 6t3.5 4q1 3 3.5 8.5t6.5 11.5q8 13 17 19.5t22 6.5q6 0 9 -1q8 -6 8 -23q-8 -17 -34 -58q-6 -11 -20 -33q9 1 20.5 6.5t16.5 7.5q7 3 31 10l26 9q4 1 8.5 3t10.5 4q15 4 20 5l19 5l23 6q46 14 70 14l11 -1q-8 -3 -18.5 -4t-17.5 -3q-54 -11 -107 -30.5
t-125 -49.5q-36 -56 -63 -102l-33 -55q-8 -15 -22 -39.5t-23 -39.5l-21 -37q-4 -7 -7.5 -12t-6.5 -10q-34 -63 -61 -121q-8 -19 -21 -40q-4 -8 -10.5 -20t-14.5 -30q-16 -39 -20 -53q-1 -3 -1 -9q0 -11 7 -11q24 -5 83 39.5t120.5 102t84.5 84.5l16 18q2 2 7 8.5t11 5.5
q1 0 1 -0.5v-0.5q0 -2 -1.5 -4t-2.5 -3q-10 -14 -34 -40l-16 -17q-16 -17 -73.5 -68t-114.5 -93.5t-80 -42.5q-3 -1 -9 -1zM15.5 434.5q11.5 3.5 17.5 5.5q-11 -2 -38 -10q9 1 20.5 4.5zM-13 428l-11 -2q8 0 11 2z" />
    <glyph glyph-name="u" unicode="u" horiz-adv-x="387" 
d="M147 -80q-15 0 -23 9t-14 25q-7 18 -7 42q0 16 3 35l2 15q2 9 8 25q8 20 8 29q-6 -5 -13.5 -15.5t-11.5 -14.5q-38 -52 -82 -85q-3 -1 -12 -5t-19 -4q-8 0 -19.5 6t-14.5 12q-6 11 -6 29q0 13 3 26q4 20 17 49l10 19l29 55q1 2 2 7t4 8q1 3 3 5t3 5q3 4 4 7t2 5q1 3 3 5
l4 4q1 2 2 4.5t2 5.5q7 12 33 46q10 13 22 20q4 1 8.5 2t8.5 1q14 0 11 -13q-1 -4 -6.5 -14.5t-7.5 -15.5q-8 -21 -21 -44q-2 -5 -4.5 -9t-4.5 -9l-58 -115q-2 -4 -4 -9t-6 -12q-7 -15 -13 -30.5t-6 -25.5q0 -15 12 -15l9 2q13 5 28 20q17 15 34.5 36.5t33.5 41.5l30 37
l11 22q18 35 31.5 56.5t30.5 36.5q8 4 18 4q7 0 10 -2q4 -9 -3 -27.5t-22 -49.5l-12 -30q-3 -11 -9 -25q-37 -89 -47 -148q-1 -4 -1 -11q0 -22 19 -21q6 1 15.5 5.5t15.5 8.5q23 14 65 61l15 17q13 13 23 28q1 2 2.5 2t2.5 1t1.5 3t2.5 3q3 2 8.5 9t10.5 10v3t2 3t5 5.5
t6 4.5q6 12 15 17q1 4 5.5 8.5t5.5 7.5q11 11 13 15q-2 5 43 53q5 5 11 8q-2 -10 -13 -21.5t-13 -14.5q-26 -29 -68 -81q-51 -65 -97 -111q-28 -28 -56 -44q-5 0 -9.5 -2.5t-6.5 -3.5q-6 -2 -17 -2z" />
    <glyph glyph-name="v" unicode="v" horiz-adv-x="341" 
d="M-9 -50q-23 0 -34 11q-9 9 -15 34q-2 12 -2 17q0 9 4 29q4 24 19 58.5t33 65.5q15 26 34 46.5t39 25.5h3q3 0 9 0.5t9 -1.5q6 -3 0.5 -13.5t-14.5 -23t-13 -18.5q-16 -26 -29 -55t-29 -73q-2 -6 -4 -10.5t-3 -8.5q-11 -33 -11 -55q0 -9 6 -15.5t18 -4.5q13 3 29 15
q27 18 50 43.5t56 67.5q11 13 21 25t19 23q-4 4 -12.5 11t-13.5 14q-4 7 -6 29q-2 20 2.5 39.5t20.5 43.5q5 7 12 15t11 14q5 4 15.5 14t20.5 15q7 5 16.5 8.5t14.5 3.5q11 0 14.5 -6t4.5 -13t1 -9q-10 -54 -73 -151q-2 -3 -7.5 -11t-7.5 -14q16 -2 25 -2q65 0 138 54l8 8
t11 4q-3 -8 -20 -20q-74 -53 -151 -53l-18 1q-4 -3 -6.5 -7.5t-4.5 -7.5q-3 -3 -7.5 -8t-9.5 -12q-46 -57 -76 -89t-65 -47q-14 -7 -32 -7zM211 169q31 46 45 79q6 13 15 50q4 14 4 25q0 16 -13 12q-26 -9 -53 -38.5t-38 -61.5q-8 -22 -8 -43q0 -30 30 -51z" />
    <glyph glyph-name="w" unicode="w" horiz-adv-x="453" 
d="M103 31q0 12 2 34q-10 -7 -28 -23q-21 -19 -38 -30.5t-35 -18.5q-12 -5 -23 -5q-10 0 -15 4q-8 6 -12.5 18.5t-4.5 27.5t6.5 38.5t16.5 45.5q14 30 35 62q10 17 21 31q42 47 68 47q4 0 10 -2q-6 -19 -28 -51q-12 -19 -26 -39q-4 -6 -10 -13.5t-12 -16.5q-2 -3 -10 -19
q-40 -67 -44 -106q-2 -20 16 -20q27 0 93 59q17 14 21 21q1 2 0.5 4.5t0.5 6.5q5 25 27 84q5 14 11 24q10 16 27 32t31 18q18 3 18 -13q0 -17 -18 -49q-6 -12 -17 -24t-13 -14l-15 -17q-5 -5 -14 -17q-7 -10 -8 -21.5t-2 -17.5q-4 -20 -4 -53q0 -15 1 -20q5 -18 19 -18
q6 0 13 3q37 19 69.5 52t65.5 79q-25 21 -31 45q-1 3 -3 7t-3 10q-2 15 5.5 40t21.5 47q16 24 43 46t50 22t23 -27q0 -9 -1 -14q-6 -36 -28.5 -73.5t-66.5 -100.5q6 -6 17 -6q1 0 1 -1.5t2 -2.5q34 1 64 18.5t65 48.5q3 3 13.5 13t22.5 14q-2 -6 -16 -15l-16 -14
q-42 -34 -69 -51t-57 -17q-13 0 -31 8q-32 -42 -61.5 -73.5t-60.5 -49.5q-29 -17 -45 -17q-34 0 -34 60zM367.5 219.5q23.5 39.5 27.5 71.5v6q0 18 -7 24q-5 3 -11 3q-8 0 -16.5 -4.5t-15.5 -11.5q-27 -21 -49 -57t-22 -68q0 -20 8.5 -36t22.5 -24q39 57 62.5 96.5z
M168.5 147.5q16.5 19.5 27.5 37.5q10 18 14 30q1 2 1 8q0 12 -6 11q-8 0 -21 -22q-12 -22 -18 -39q-15 -37 -19 -51q5 6 21.5 25.5z" />
    <glyph glyph-name="x" unicode="x" horiz-adv-x="364" 
d="M119.5 -6q-12.5 21 -12.5 54q0 10 2 28q-7 -6 -37 -38q-26 -32 -36 -36q1 7 8 13.5t9 8.5q24 26 38 43q17 17 19 22q7 10 11.5 26.5t6.5 22.5q6 22 21 84.5t16 68.5l1 8q0 11 -5 13h-1q-4 0 -10.5 -2t-11.5 -5q-28 -15 -46.5 -36.5t-46.5 -61.5q-5 -7 -11 -13.5t-8 -3.5
q3 4 14 20q14 27 29 45q21 25 41.5 42.5t45.5 25.5q12 4 24 4q19 0 29 -11t9 -27q2 -16 -3 -37t-6 -25q-8 -32 -9 -46q8 6 17 16l16 16q48 49 82 77q11 13 18 11q-2 -5 -18 -16q-31 -26 -75 -74l-34 -34q-10 -11 -13 -16t-7 -17l-10 -29l-23 -67q-5 -10 -8.5 -23.5
t-3.5 -21.5q0 -9 5.5 -15t13.5 -5q6 0 16 6t12 7q29 20 76 60t73 73q61 72 67 71q4 0 -15 -19l-18 -21q-17 -19 -32 -38q-36 -46 -91.5 -92.5t-92.5 -54.5q-23 -2 -35.5 19z" />
    <glyph glyph-name="y" unicode="y" horiz-adv-x="360" 
d="M-63 -297q0 33 17 64q13 24 46 62q40 46 92 87q15 13 18 17q2 4 3 8.5t2 7.5q1 4 3 7.5t3 7.5l11 38q1 3 3 6.5t3 6.5l18 57q26 78 32 94q-7 -3 -20 -19l-40 -39q-38 -40 -65 -61q-7 -5 -25.5 -18t-36.5 -18q-12 -4 -16 -4q-11 0 -18 7q-12 11 -12 33q0 17 6 36
q7 21 22 48.5t29 51.5q3 4 14 24l17 22q2 2 12 16.5t22 21.5q5 3 13.5 5t14.5 2q11 0 10 -8q-1 -3 -7 -11.5t-9 -13.5q-24 -32 -49 -77q-16 -24 -30 -56l-10 -19q-14 -26 -18 -38q-5 -17 -5 -26q0 -10 7 -10q12 0 40 17l19 14q12 10 19 14q7 7 16.5 15.5t14.5 12.5l91 90
q4 8 13.5 29t20.5 36q7 10 18.5 19.5t20.5 9.5q11 0 11 -10q0 -14 -24 -57q-18 -35 -36 -93l-7 -21l-8 -25l-10 -31l-14 -47q27 19 49.5 40.5t62.5 62.5l56 56l39 40q9 14 13 13q1 0 1 -1q0 -3 -10 -13q-4 -5 -26 -27l-16 -17l-57 -58q-46 -47 -87 -82q-4 -3 -7.5 -6
t-7.5 -6q-2 -2 -8 -5.5t-8 -6.5q-1 -3 -2 -8.5t-3 -8.5l-8 -19q-2 -5 -3.5 -12t-5.5 -16q-5 -9 -15 -31q-34 -71 -56 -103q-54 -75 -101 -93q-12 -5 -23 -5q-5 0 -13 2q-6 6 -6 19zM-44 -310q9 0 21 8q36 22 72 86q14 25 27 56t20 54q2 5 6 13t3 12q-1 0 -1 0.5v0.5v0.5
t-1 -0.5h-0.5t-0.5 -1q-35 -27 -83 -78q-68 -75 -73 -122l-1 -9q0 -17 9 -20h2z" />
    <glyph glyph-name="z" unicode="z" horiz-adv-x="274" 
d="M29 -340q-17 0 -26 18q-16 16 -16 51l-4 9l1 15q0 3 -1 6t-1 6q0 6 6 28l2 8v2q0 4 6 23l2 11q5 15 19 37q4 7 12 18.5t9 15.5v1q0 7 -8 21q-7 18 -29 60q-15 28 -22 37q-4 8 -4 17q0 16 13.5 32t43.5 43q29 26 48.5 45.5t35.5 43.5q15 20 15 33q0 7 -6 7
q-22 0 -42 -11.5t-34 -28.5q-2 -3 -5 -7t-6 -7q-5 2 -5 5q0 2 2 5t2 4q10 15 37.5 31.5t49.5 16.5q18 0 25 -14q7 -12 7 -29q0 -4 -2 -16q-1 -4 -3.5 -10t-3.5 -8q-4 -12 -14.5 -24.5t-12.5 -14.5q-10 -12 -33 -32q-32 -24 -45 -37.5t-13 -26.5q0 -15 19 -40l12 -24
q13 -26 16 -31q8 2 12 9q21 15 44.5 42.5t60.5 74.5q35 44 57.5 70t43.5 43q4 2 8.5 7t8.5 5q3 0 3 -2q-1 -2 -3 -4t-4 -3q-27 -22 -52.5 -51.5t-59.5 -74.5q-8 -9 -37 -45.5t-56 -63.5l-21 -19l7 -20q8 -20 11 -31q10 -28 14 -63q0 -1 3 -13l-1 -36l-2 -11q-10 -59 -52 -88
q-17 -15 -32 -15zM28 -328q8 0 15.5 5t10.5 11q19 27 21 71q0 30 -6 56.5t-17 59.5l-6 20q-1 1 -2 0q0 1 -1 0t-2 0q-19 -25 -33.5 -67.5t-14.5 -82.5q0 -9 2 -25q9 -42 25 -47q3 -1 8 -1z" />
    <glyph glyph-name="zero" unicode="0" horiz-adv-x="251" 
d="M33 4q-10 5 -16 11q-17 17 -17 53q0 34 14 71q18 49 51 102.5t71 98.5q4 4 6.5 9t6.5 9q52 59 76 75q19 14 40 14q7 0 11 -1q3 -1 6 -3.5t5 -2.5q3 0 15 8t16 10q18 8 37 8q22 0 34 -10q12 -11 12 -39q0 -14 -3 -28q0 -2 -1.5 -5.5t-2.5 -5.5q-2 -7 -6.5 -25t-12.5 -34
q-12 -26 -35 -60q-57 -91 -124.5 -159.5t-139.5 -94.5q-4 -1 -11 -3t-12 -2q-10 -1 -20 4zM53 10q5 0 12.5 3.5t11.5 5.5q30 10 67 35q60 41 115.5 106t95.5 138q28 49 33 99q1 7 1 23q0 19 -6.5 30t-24.5 11q-16 0 -32.5 -7.5t-38.5 -22.5l-22 -14q-26 -15 -34 -23
q-4 -3 -19 -21q-46 -50 -101 -134q-5 -8 -9 -14t-7 -11l-8 -16q-3 -5 -6.5 -10t-7.5 -12q-29 -59 -36 -77q-1 -3 -1 -6.5t-1 -6.5q-1 -4 -2.5 -7.5t-2.5 -6.5q-2 -16 -2 -23q0 -28 16 -36q4 -3 9 -3z" />
    <glyph glyph-name="one" unicode="1" horiz-adv-x="260" 
d="M0 4q0 2 5 4t8 5q18 4 56 8l38 5q2 6 15 35q1 5 2 11t2 11q12 33 51 97l30 53q38 71 80 141q-13 -9 -33 -25l-22 -17q-6 -6 -14 -11.5t-12 -8.5q-7 -5 -14.5 -9.5t-12.5 -3.5v2q0 3 5 6t7 4q19 11 41 28.5t43 35.5q6 6 16.5 15t16.5 15q8 9 16 24l16 23l10 10
q3 4 12.5 17t18.5 20.5t18 7.5q11 0 11 -9q0 -8 -7.5 -22.5t-9.5 -18.5q-15 -31 -53 -89q-21 -35 -74 -131q-44 -83 -81 -141q-4 -7 -24 -29q-23 -27 -29 -39q3 -1 11 -1l24 1q19 0 23 -8q-2 -1 -6 -1t-9 1.5t-10 1.5q-16 0 -30 -3q-8 1 -34 -3l-24 -3q-8 0 -24 -1t-25 -2
q-7 -2 -15.5 -5t-11.5 -2z" />
    <glyph glyph-name="two" unicode="2" horiz-adv-x="362" 
d="M13 -10q-9 0 -13 5q5 10 12 15.5t20 12.5q12 6 18 10q11 7 29 24.5t23 21.5q86 86 152 147q63 59 99 99l20 21q55 57 76 87l5 10q1 2 8 11t10 19q2 9 2 26q-5 13 -13 15q-2 1 -8 1q-5 0 -13 -1t-13 0q-70 -26 -130.5 -83.5t-109.5 -138.5q-3 0 -3 3q0 5 3 8l8 17l10 13
q2 3 3.5 6l2.5 5t7 8q50 66 103 108q46 34 63 44q32 19 73 22h6q24 0 36.5 -12.5t12.5 -33.5q0 -33 -30 -77q-7 -10 -42 -50q-52 -61 -134 -136l-46 -42q-62 -58 -92 -84l-17 -15q-20 -16 -28 -26q18 -4 44 -20q22 -13 31 -17q3 -1 10.5 -2t11.5 -1q10 -1 26 -3t28 -1
q3 1 7.5 2t7.5 0q-4 -11 -23 -11q-8 0 -11 1q-1 0 -2.5 1.5t-3.5 1.5q-5 1 -12.5 0.5t-11.5 -0.5q-6 0 -9 1q-28 5 -46 15q-18 12 -27 16l-19 8q-2 1 -4.5 2t-4.5 0q-6 -1 -21 -12.5t-21 -15.5q-27 -18 -45 -22q-7 -3 -15 -3z" />
    <glyph glyph-name="three" unicode="3" horiz-adv-x="215" 
d="M33 13.5l-5 2.5q-6 0 -8 1q-6 1 -11.5 6.5t-7.5 11.5v2l1 10q0 2 -1 4t-1 3q0 9 11 29q12 24 31.5 46t37.5 30q10 4 20 4q12 0 15 -6h-5q-3 0 -5.5 1t-6.5 1q-11 0 -21 -8t-24 -23q-33 -33 -42 -65q-3 -14 7.5 -24t28.5 -10q9 0 14 1q31 5 58.5 22t62.5 47q27 22 47 42
q29 31 42 50q25 38 29 53v5q0 8 -4 15t-10 9q-8 2 -13 2q-17 0 -38 -7t-25 -8q-5 -3 -21 -12.5t-25 -9.5t-10 8q4 2 11 7.5t14 7.5q14 14 48 42q56 45 80 77q11 15 20 35t9 34q0 21 -24 17q-18 -4 -39.5 -14t-38.5 -21q-30 -23 -35 -27q-7 -6 -41 -43q-5 -12 -7 -14
q-6 0 -6 4q0 6 13 21q37 42 80 69q61 37 93 37q14 0 22.5 -7t10.5 -18q1 -4 1 -11q0 -5 -2 -19q-7 -31 -31 -62q-18 -23 -38.5 -41t-56.5 -46q9 0 21 3t20 4l6 1q7 0 22 -5q23 -9 23 -36q0 -23 -21 -61l-14 -20q-25 -33 -66.5 -67.5t-78.5 -53.5q-19 -10 -44 -18
q-5 -1 -26 -5l-5 -2.5t-6 -1.5l-16 -1l-14 1q-2 0 -5 1.5z" />
    <glyph glyph-name="four" unicode="4" horiz-adv-x="278" 
d="M114.5 19q3.5 13 9 27.5t8.5 21.5q4 12 14 32l15 30q24 46 29 60q-16 2 -36 -4.5t-47 -18.5q-17 -10 -25.5 -13.5t-10.5 4.5q-2 7 3.5 23t12.5 29q1 10 15 36q4 7 9.5 17.5t9.5 16.5q1 3 5 9t7 11q5 7 13.5 22t17.5 30l22 38q4 8 24 38q35 55 59 67q6 3 13 3t8 -4
q-2 -14 -14.5 -30t-15.5 -20l-11 -17q-11 -19 -22 -34q-8 -11 -33.5 -54t-38.5 -66l-38 -59l-11 -25q-3 -5 -9 -12t-8 -13q7 1 16.5 6t13.5 7q45 17 74 22q5 4 6.5 9.5t2.5 7.5q12 20 17 29q11 22 28 54q38 63 55 88.5t31 42.5q15 15 26 22t26 8q0 -1 2 -2t3 -1
q0 -7 -11.5 -24t-15.5 -23l-11 -19q-6 -12 -17.5 -31t-22.5 -38l-22 -37l-13 -23l-27 -48q-3 -5 -5.5 -11.5t-6.5 -13.5q-11 -20 -39 -78l-40 -78q-7 -13 -12.5 -19.5t-14.5 -12.5q-7 -3 -18 -3q-3 8 0.5 21z" />
    <glyph glyph-name="five" unicode="5" horiz-adv-x="226" 
d="M0 39q0 23 15 50t39 47q13 10 26 18q2 2 11 7.5t15 3.5q-3 -5 -11 -9t-13 -7q-19 -14 -23 -17q-31 -27 -39 -51l-1 -4v-3t-3 -6q-4 -45 20 -52q9 -2 18.5 0.5t23.5 8.5q37 19 89 74q50 52 98 127q18 27 34 59.5t18 52.5q0 17 -24 17q-25 0 -53.5 -12t-52.5 -24.5
t-31 -16.5q-25 -12 -36 -21q-5 -4 -13 -12.5t-18 -9.5l-5 7q6 9 12 29q5 15 18 37.5t18 30.5q26 47 68 99q12 8 30.5 11t49.5 5q13 0 31 2q5 1 16 1q6 0 36 -3q5 -1 9.5 -2.5t3.5 -5.5q-2 -1 -6 -1q-3 0 -6.5 1t-7.5 1q-86 2 -131 -12q-8 -23 -22.5 -53.5t-29.5 -53.5
q-11 -17 -13 -19q-14 -23 -16 -28h1q4 0 8 3t5 4q41 22 69 34.5t60 19.5q5 1 14 1q15 0 25 -4.5t14 -12.5t4 -22q0 -15 -5 -33q-8 -31 -29 -70t-46 -73q-33 -45 -76 -84t-83 -55q-32 -13 -61 -13q-12 0 -21 3q-23 9 -23 36z" />
    <glyph glyph-name="six" unicode="6" horiz-adv-x="338" 
d="M123 7q-15 10 -21 25q-6 16 -9 28t-3 27q0 29 10.5 58t32.5 81q9 23 21 42l10 20q9 17 37 58q64 95 137 141q22 13 47 23q36 14 61 13q6 0 13 -2.5t11 -5.5q11 -11 16 -30q2 -10 2 -19q0 -18 -7 -32h-1q-4 0 -1 10q0 60 -25 67q-8 2 -12 2q-14 0 -33 -8q-22 -9 -38.5 -24
t-39.5 -41q-33 -35 -65 -77q-77 -113 -112 -234l-6 -17q-6 -34 -6 -50q0 -17 6.5 -31t17.5 -18q3 -1 11 -1q14 0 31 5.5t30 14.5q30 19 60.5 53t47.5 68q11 21 18 46.5t7 43.5q-1 16 -8.5 27t-24.5 11q-8 0 -17 -3q-19 -4 -46 -27q-4 -4 -14 -13t-16 -18q-7 -10 -14 -28
q-2 -4 -6.5 -14t-10.5 -18q-4 -1 -3 1.5t1 3.5q-3 2 -3 7q0 7 5 17l8 10q0 1 0.5 4t3.5 7q5 10 19 24q9 11 21 22q15 13 39 22.5t43 9.5q13 0 22 -6q7 -5 11 -16t4 -23q0 -29 -22 -80q-15 -31 -32 -53q-16 -28 -36 -48q-65 -65 -135 -65q-22 0 -37 10z" />
    <glyph glyph-name="seven" unicode="7" horiz-adv-x="349" 
d="M64.5 13q4.5 5 6.5 8q3 5 5 9.5t5 9.5q5 8 17 24q65 86 158 188q-11 -1 -29 1q-16 2 -24 2q-10 0 -15 -1q-8 -2 -19.5 -8.5t-16.5 -6.5q9 13 27 17t45 4t38 1q64 69 110 127q18 23 20 26l8 8q7 10 13 23q6 12 6 22t-8.5 16t-24.5 6q-27 0 -77 -14q-36 -12 -68 -29
q-25 -14 -52.5 -34.5t-53.5 -41.5q-3 -2 -7 -6t-8 -3q1 6 9.5 13t12.5 10q76 67 175 103q26 10 57 14q3 1 12.5 3t18.5 0q21 -3 32.5 -15t11.5 -31q0 -12 -2 -18q-5 -17 -17 -35l-14 -21q-15 -23 -37 -49t-28 -34q-20 -21 -36 -42q4 -3 14 -2.5t15 0.5q1 -1 2.5 -2t3.5 -1
q2 -1 7.5 -2t6.5 -5q-5 -4 -10 -4q-3 0 -4.5 1.5l-2.5 2.5q-4 1 -12 1h-15q-10 0 -14 1q-41 -43 -80 -89l-34 -39l-18 -20q-30 -35 -39 -44l-30 -30q-2 -2 -14 -14.5t-22 -12.5q-5 0 -9 4q0 4 4.5 9z" />
    <glyph glyph-name="eight" unicode="8" horiz-adv-x="271" 
d="M46 0q-28 0 -40 31q-1 2 -3 5t-2 5q-1 3 -1 11q0 26 21 66q14 28 39.5 56.5t51.5 46.5q3 2 10 7.5t13.5 8t11.5 1.5q-2 -4 -20 -17l-23 -18q-17 -16 -41 -45l-11 -18l-5 -5t-5 -7q-8 -12 -14.5 -29t-8.5 -28q-3 -10 -3 -20q0 -8 2 -12q3 -10 10.5 -18t19.5 -8q11 0 22 7
q23 13 44.5 47.5t28.5 66.5q7 33 8 61q2 38 12 118q0 6 1 19.5t3 25.5q0 2 1 3.5t1 4.5q4 28 17 51q14 24 36.5 49t42.5 38q38 26 99 37q5 1 14 1q16 0 27 -5.5t13 -14.5q3 -6 3 -15q0 -19 -12 -44t-31 -49q-47 -56 -104 -102q-2 -2 -9 -8t-13 -6q1 5 6.5 9t6.5 5
q21 17 49 45q6 6 27 26.5t34 38.5q14 20 24 42t10 37q0 13 -8.5 21t-24.5 8q-8 0 -12 -1q-34 -7 -64.5 -34.5t-52.5 -65.5q-8 -14 -11.5 -25.5t-6.5 -28.5q-4 -25 -8 -69l-2 -20q-8 -71 -15 -105l1 -7q-2 -3 -4 -9q-1 -2 -0.5 -4.5t-0.5 -4.5q-1 -3 -2.5 -6.5t-2.5 -7.5
q-6 -23 -18 -44q-2 -4 -4.5 -7t-3.5 -6q-31 -49 -64 -68q-15 -9 -46 -16q-5 -1 -13 -1z" />
    <glyph glyph-name="nine" unicode="9" horiz-adv-x="386" 
d="M52 -1q-18 0 -31.5 9.5t-20.5 24.5q-1 23 14 56q7 12 11.5 17t15.5 14q24 22 42 22q-3 -4 -8.5 -6t-6.5 -3q-23 -14 -41 -39t-18 -48q0 -5 2 -13q2 -9 14 -15.5t27 -6.5q18 0 35 10q57 46 101.5 110t83.5 145q21 47 32 83q17 45 22 77q8 36 8 57q-3 33 -17 33
q-13 0 -27.5 -12.5t-30.5 -31.5q-36 -40 -44 -51q-27 -36 -48 -92q-16 -48 -16 -77q0 -31 19 -31q12 1 26 8.5t22 15.5q15 12 28.5 31t17.5 25q1 2 6.5 8.5t12.5 7.5v-2q0 -7 -6.5 -15.5t-8.5 -10.5q-20 -30 -48 -53q-23 -16 -33 -20q-6 -2 -13 -2.5t-12 -1.5q-23 6 -23 40
q0 13 5 33q20 84 63 138q23 31 39 49q26 30 46 44q17 12 42 15q46 -4 46 -65q0 -48 -15 -95.5t-42 -104.5q-51 -104 -129 -186q-55 -57 -91 -76q-30 -15 -51 -15zM174 226q5 0 22 7q-5 -1 -11.5 -3t-13.5 -3q1 -1 3 -1z" />
    <glyph glyph-name="colon" unicode=":" horiz-adv-x="272" 
d="M96 216q10 12 21 18q5 -1 5 -8q0 -10 -9.5 -23t-18.5 -13q-5 0 -8 3q0 11 10 23zM39 116q10 12 21 18q6 -1 6 -9q0 -10 -10 -22.5t-19 -12.5q-4 0 -7 3q-1 11 9 23z" />
    <glyph glyph-name="comma" unicode="," horiz-adv-x="199" 
d="M10 -25q2 5 3 5l6 6q12 10 8 17v1q0 6 5 11q5 7 9 7q5 1 7 -5l1 -3q0 -3 -2 -7.5t-3 -6.5q-8 -16 -29 -26q-5 -2 -5 1z" />
    <glyph glyph-name="exclam" unicode="!" horiz-adv-x="306" 
d="M72 142q0 8 6 20.5t7 15.5q21 46 49 99l29 57l14 27q34 66 45 90q2 4 8.5 18.5t12.5 16.5q8 0 13 -1q2 -11 -13 -41l-18 -38q-31 -67 -49 -99q-4 -7 -25 -49q-14 -28 -21 -40l-23 -46q-16 -35 -26 -37q-9 -1 -9 7zM9 26q10 12 21 18q6 -1 6 -9q0 -10 -9.5 -22.5
t-18.5 -12.5q-5 0 -8 3q-1 11 9 23z" />
    <glyph glyph-name="exclamdown" unicode="&#xa1;" horiz-adv-x="277" 
d="M196 455q0 14 13 28q6 3 10 3q7 0 7 -9q0 -10 -7.5 -21.5t-17.5 -13.5q-5 5 -5 13zM4 17.5q8 15.5 9 17.5q15 31 37 85l14 32l15 37q9 21 24 57t27 62q2 3 8 15t13 20t13 8q7 0 5 -8.5t-6 -17t-5 -11.5q-13 -31 -19 -46q-12 -29 -21 -49l-17 -40q-14 -40 -52 -118l-9 -19
q-1 -3 -7.5 -17t-17.5 -24q-11 -2 -13 -1q-6 2 2 17.5z" />
    <glyph glyph-name="numbersign" unicode="#" horiz-adv-x="472" 
d="M173 20q-3 0 -4.5 2.5t-2.5 3.5q7 26 21 57.5t40 81.5q12 22 17 33h-5q-13 0 -30 -3l-20 -4l-24 -5q-9 -12 -22 -36l-12 -21q-4 -7 -10.5 -15t-10.5 -12q-1 -2 -5.5 -9.5t-9.5 -12.5t-10 -4q-3 0 -3 4q0 3 4.5 13.5t4.5 13.5q1 3 1 9q3 14 15 33q10 19 12 25
q-19 -2 -61 -16q-1 -1 -8 -3.5t-10 -0.5q2 3 6 4t6 3q11 3 20 6t17 5q31 10 37 12q24 45 30 63q-26 -1 -53 -14q-4 -2 -10 -6.5t-10 -5.5t-8 2q10 11 37 19q4 2 9.5 3.5t12.5 5.5q9 0 16 4q8 0 11 2q14 15 30 51q14 28 21 38q15 24 26 24q5 0 5 -5q0 -3 -7 -22
q-2 -5 -3 -9.5t-2 -7.5q-5 -14 -14 -29q-13 -22 -15 -33q9 2 17 2.5t17 2.5q6 1 15.5 3.5t21.5 4.5q4 1 7 0.5t5 0.5q7 4 11.5 12t5.5 10q11 19 29 43q31 44 43 35q-7 -19 -26 -51q-16 -26 -22 -39q9 0 33 4q4 1 19 3t28 1q11 -1 20.5 -5.5t2.5 -10.5q-2 -2 -4 -2
q-3 0 -7.5 3t-6.5 4q-4 1 -14 1q-9 0 -23 -2t-20 -3q-5 -1 -16 -3t-18 -2l-15 -30l-16 -31q6 -2 10 -2q7 0 14 1t14 1h7q25 0 26 -9q-3 -1 -8 -1t-11.5 1t-9.5 2q-8 0 -24 -2t-24 -2q-13 -23 -32 -60q-23 -49 -43 -80l-17 -25q-1 -2 -4 -9t-9 -9q-2 -1 -5 -1zM250 210
q4 9 8 15.5t7 11.5q15 24 17 31q-2 1 -5 1q-5 0 -20 -5h-15q-4 -1 -8.5 -2.5t-7.5 -1.5q-2 0 -12 -1t-18 -5l-12 -25q-12 -21 -16 -35q65 12 82 16z" />
    <glyph glyph-name="period" unicode="." horiz-adv-x="192" 
d="M20 4.5q14 8.5 22 2.5q-5 -6 -3.5 -11.5t-0.5 -8.5q-4 -7 -18 -7q-12 0 -12 6q-2 10 12 18.5z" />
    <glyph glyph-name="question" unicode="?" horiz-adv-x="352" 
d="M55 132q0 18 20 46q16 28 22 36l31 41q6 8 14.5 19.5t19.5 26.5q2 3 3.5 6.5t3.5 6.5q19 26 35 50q5 8 9 13t7 9q19 28 26 39q3 6 9 14t7 12q2 6 2 11q0 15 -11 16q-10 0 -34 -15q-21 -12 -50 -40q-20 -19 -32.5 -35t-20.5 -37q-2 -5 -4 -15.5t-5 -15.5q-6 2 -6 7
q0 29 20.5 56.5t54.5 57.5q28 27 80 49q10 3 19 3q10 0 17 -4q10 -7 10 -22q0 -24 -20.5 -56t-60.5 -85l-35 -46q-24 -30 -44 -59q-12 -16 -34 -48q-17 -27 -34 -49q-4 -2 -9.5 -2h-6.5q-3 5 -3 10zM11.5 24.5q13.5 8.5 22.5 2.5q-5 -6 -3.5 -11.5t-0.5 -8.5q-4 -7 -17 -7
q-11 0 -13 6q-2 10 11.5 18.5z" />
    <glyph glyph-name="questiondown" unicode="&#xbf;" horiz-adv-x="341" 
d="M258 463q-12 0 -12 11q0 7 7 13q6 6 19 6q9 0 9 -6q0 -3 -6 -9t-7 -12q-6 -3 -10 -3zM23 51q-3 15 -3 31q0 40 26 72q2 2 8 10t13 9q-2 -6 -8.5 -15t-10.5 -16q-16 -31 -16 -56q0 -11 1 -16q3 -28 13 -40q12 -15 21 -15q7 0 17 8.5t16 17.5q2 4 4 12.5t4 13.5q7 22 10 38
l6 24q11 46 12 50l4 13q4 16 8 44q2 11 8 43q3 11 6 19.5t5 15.5q13 45 36 57q3 -1 8 -1t6 -1q-3 -19 -13 -57q-5 -17 -10 -41l-9 -51q-1 -9 -3.5 -25t-5.5 -28q-1 -7 -8.5 -47t-26 -72.5t-46.5 -44.5q-10 -3 -19 -3q-10 0 -18 3q-30 21 -35 48z" />
    <glyph glyph-name="semicolon" unicode=";" horiz-adv-x="289" 
d="M103.5 238.5q5.5 10.5 15 19.5t14.5 7q6 -1 6 -9q0 -10 -9.5 -22.5t-18.5 -12.5q-5 0 -8 3q-5 4 0.5 14.5zM43.5 68q3.5 8 3.5 16t-7 8q-1 10 12.5 18.5t21.5 2.5q2 -5 -8.5 -23t-24.5 -28q-1 -2 2.5 6z" />
    <glyph glyph-name="slash" unicode="/" horiz-adv-x="255" 
d="M20 -2q0 9 7 21l24 48q57 111 103 208l33 65q1 1 4 10t7 8t7 -4v-3q0 -10 -7 -22q-3 -8 -14.5 -33t-22.5 -43q-26 -54 -59.5 -122t-48.5 -97q-1 -1 -14 -25q-8 -20 -14 -19q-5 1 -5 8z" />
    <glyph glyph-name="underscore" unicode="_" horiz-adv-x="260" 
d="M167 -17q-4 0 -8.5 1t-9.5 2q-7 1 -23 1l-23 2q-24 4 -52 4q-25 0 -73 -6q-2 -1 -7 -1t-8.5 1.5t-0.5 2.5q1 1 10 4q39 6 80 6q44 0 102 -6q2 -1 8 -2t7 -7q0 -2 -2 -2z" />
    <glyph glyph-name="hyphen" unicode="-" horiz-adv-x="251" 
d="M62 188q1 1 3 1t3 1q10 1 37 1l78 -1q8 -3 8 -7q-13 0 -50.5 0.5t-77.5 2.5l-2 -2l-1 -1q0 4 2 5z" />
  </font>
</defs>
</svg>
